<?xml version="1.0" encoding="utf-8"?>
<!-- Generator: Adobe Illustrator 26.3.1, SVG Export Plug-In . SVG Version: 6.00 Build 0)  -->
<svg version="1.1" id="Layer_1" xmlns="http://www.w3.org/2000/svg" xmlns:xlink="http://www.w3.org/1999/xlink" x="0px" y="0px"
	 viewBox="0 0 783.33 793.45" style="enable-background:new 0 0 783.33 793.45;" xml:space="preserve">
<style type="text/css">
	.st0{fill:#E9EBF7;}
	.st1{fill:#E9EBF7;stroke:#E9EBF7;stroke-miterlimit:10;}
</style>
<g>
	<path class="st0" d="M307.81,284.02c-3.3-0.77-6.55-1.11-9.47-2.28c-8.51-3.43-12.76-12.01-10.91-21.32
		c1.68-8.46,9.52-15.03,18.13-15.18c9.29-0.17,17.58,5.21,20.53,13.31c3.45,9.47,0.45,20.39-7.09,26.61
		c-9.56,7.88-20.75,10.02-32.7,9.58c-8.44-0.31-16.36-2.48-23.69-6.77c-11.94-6.99-17.9-17.55-18.14-31.17
		c-0.36-20.74-0.24-41.5-0.55-62.24c-0.1-6.73-0.56-13.5-3.3-19.84c-1.51-3.5-3.65-6.5-7.18-8.19c-3.48-1.67-5.29-1.13-7.29,2.24
		c-3.08,5.18-4.2,11.02-4.38,16.87c-0.48,15.65-0.54,31.3-0.77,46.96c-0.02,1.08-0.02,2.15-0.01,3.23c0.01,1.63-0.54,2.36-2.33,1.81
		c-9.75-3.01-19.76-3.99-29.87-3.04c-5.82,0.55-11.58,1.83-17.37,2.68c-0.89,0.13-1.86-0.28-2.79-0.44
		c0.53-1.02,0.82-2.66,1.62-2.97c8.75-3.4,12.06-10.79,13.87-19.03c2.26-10.3,2.67-20.8,1.07-31.22c-0.62-4.07-2.46-7.97-3.94-11.87
		c-0.43-1.13-1.4-2.15-2.34-2.97c-5.4-4.75-8.88-4.41-11.68,2.17c-3.44,8.08-3.9,16.74-4.07,25.33
		c-0.25,12.62-0.07,25.25-0.07,37.88c0,1.15,0,2.29,0,3.79c-1.14-0.17-1.88-0.2-2.58-0.39c-13.67-3.68-27.44-3.8-41.29-1.17
		c-2.02,0.38-4.01,0.89-6.04,1.18c-0.63,0.09-1.33-0.34-2-0.54c0.25-0.87,0.25-2.03,0.82-2.54c0.92-0.8,2.26-1.1,3.35-1.73
		c6.83-3.96,9.81-10.51,11.26-17.76c3.1-15.5,2.89-31.17,0.92-46.76c-0.63-5.03-2.56-10.01-4.56-14.73
		c-1.83-4.34-5.48-7.25-9.84-9.24c-0.9-0.41-1.38-1.74-2.05-2.65c0.96-0.32,1.95-0.99,2.87-0.91c8.95,0.76,17.87,2.11,26.82,2.32
		c5.98,0.14,12-1.32,18-2.07c1.24-0.16,2.48-0.36,4.28-0.63c0,8.55,0,16.76,0,24.97c0.28,0.06,0.56,0.11,0.85,0.17
		c1.74-3.2,3.37-6.48,5.25-9.59c3.8-6.29,8.51-11.77,15.31-14.94c9.76-4.56,21.2-1.2,27.75,7.92c3.65,5.08,6.06,10.68,7.2,16.83
		c0.11,0.61,0.44,1.19,0.94,2.48c0.76-1.34,1.26-2.09,1.62-2.89c3.8-8.47,8.41-16.35,16.14-21.93c10.15-7.32,23.05-5.47,30.84,4.33
		c6.15,7.74,9.06,16.68,9.2,26.37c0.42,29.26,0.49,58.53,0.85,87.79c0.06,4.65,0.44,9.41,1.52,13.92
		c2.43,10.17,11.27,16.09,20.41,14.2C304.39,289.22,307.06,286.94,307.81,284.02z"/>
	<path class="st0" d="M647.24,243.33c9.82-0.93,20.23,5.49,22.88,13.89c3,9.5-1.23,20.39-10.08,24.83
		c-7.68,3.85-15.67,3.08-22.71-1.28c-6.6-4.09-12.73-9.06-18.58-14.2c-11.12-9.77-23.01-18.13-37.08-23.09
		c-10.53-3.72-21.44-5.1-32.54-5.32c-4.99-0.1-9.98-0.01-14.97-0.14c-0.79-0.02-2.27-0.84-2.23-1.08c0.18-1.02,0.57-2.53,1.31-2.84
		c10.78-4.51,13.37-14.11,14.98-24.16c1.42-8.83,1.6-17.77,0.04-26.6c-0.65-3.7-1.93-7.36-3.45-10.8c-0.86-1.95-2.6-3.68-4.3-5.07
		c-4.21-3.43-7.83-2.74-9.63,2.35c-1.8,5.11-3.44,10.53-3.68,15.89c-0.69,15.24-0.64,30.5-0.87,45.76c-0.02,1.47-0.05,2.94-0.01,4.4
		c0.05,1.56-0.61,2.28-2.21,2.44c-8.51,0.82-15.28,5.03-21.08,11.04c-4.14,4.29-8.2,8.67-12.46,12.85
		c-3.24,3.18-6.93,5.82-11.6,6.39c-1.06,0.13-2.87-0.43-3.23-1.19c-0.83-1.73,0.91-2.08,2.18-2.65c4.97-2.25,7.12-6.84,8.01-11.63
		c1.89-10.16,3.73-20.4,4.5-30.69c1.63-21.77,2.31-43.59,0.26-65.39c-0.61-6.54-2.03-12.92-5.52-18.66
		c-2.25-3.7-5.27-6.45-9.21-8.31c-0.9-0.43-1.38-1.76-2.05-2.68c0.95-0.3,1.95-0.96,2.86-0.85c9.5,1.06,18.97,2.83,28.49,3.16
		c5.81,0.2,11.74-1.62,17.55-2.83c3.23-0.67,3.75-0.53,3.75,2.91c0.02,10.27,0,20.55,0.02,30.82c0,1.2,0.21,2.41,1.03,3.76
		c1.48-2.77,2.84-5.6,4.45-8.3c3.86-6.47,8.54-12.2,15.58-15.44c9.47-4.35,19.75-1.87,26.39,6.21c6.41,7.8,9.2,16.93,9.55,26.84
		c0.43,12.03,0.58,24.06,0.93,36.09c0.28,9.95,2.27,19.41,8.37,27.6c4.59,6.16,11.2,9.65,17.77,13.11c7.2,3.8,14.66,6.98,22.91,7.62
		c8.08,0.62,14.46-3.28,13.56-12.89C647.07,244.67,647.19,244.09,647.24,243.33z"/>
	<path class="st0" d="M348.46,228.32c-1.59-0.2-2.91-0.38-4.24-0.53c-10.17-1.16-16.99-8.91-16.8-19.1
		c0.18-9.72,7.94-17.83,17.74-18.54c9.26-0.67,18.06,4.33,20.99,11.93c3.89,10.08,1.14,21.34-6.63,27.77
		c-9.63,7.97-20.93,10.04-32.99,9.56c-23.44-0.94-39.98-15.81-43.84-39.18c-1.96-11.86-1.47-23.41,3.69-34.43
		c5.8-12.39,15.55-20.45,28.45-24.54c15.02-4.76,29.65-3.57,43.19,4.75c14.19,8.72,20.69,22.23,22.16,38.36
		c0.81,8.93,0.22,17.81-3.43,26.2c-0.41,0.93-1.39,1.62-2.11,2.42c-0.44-1.01-1.18-1.99-1.27-3.02
		c-1.02-12.76-7.34-20.96-19.44-24.12c-3.48-0.91-7.38-0.6-11.05-0.36c-3.9,0.26-4.05,0.5-3.5-3.52c1.16-8.6,1.39-17.19-0.22-25.72
		c-0.62-3.3-1.66-6.69-3.32-9.57c-2.56-4.45-7.21-4.53-9.43,0.04c-2.54,5.21-4.55,10.81-5.84,16.45
		c-2.91,12.77-3.28,25.8-2.36,38.83c0.56,8.01,2.11,15.87,5.63,23.22c3.73,7.82,10.35,11.38,17.73,9.4
		C344.78,233.78,347.2,231.68,348.46,228.32z"/>
	<path class="st0" d="M444.89,186c0.17-2.47,0.21-4.57,0.46-6.65c1.14-9.41,0.91-18.76-1.58-27.94c-0.55-2.02-1.58-4.04-2.88-5.68
		c-2.49-3.16-6.33-3.17-8.31,0.29c-2.2,3.85-4.04,8.05-5.19,12.33c-3.79,14.12-4.46,28.57-3.53,43.09
		c0.53,8.22,2.08,16.27,5.67,23.81c3.72,7.82,10.37,11.43,17.73,9.36c3.09-0.87,5.61-2.57,7.12-6.18c-1.7-0.25-3.08-0.48-4.46-0.64
		c-10.29-1.18-17.08-9.02-16.78-19.4c0.34-11.96,12.54-20.89,24.16-17.87c8.07,2.09,13.77,6.68,15.61,14.93
		c2.1,9.46-0.1,17.91-7.72,24.38c-9.53,8.09-20.91,10.07-32.96,9.59c-23.44-0.94-39.95-15.8-43.83-39.19
		c-1.9-11.45-1.51-22.64,3.2-33.36c5.68-12.93,15.61-21.36,28.95-25.59c15.02-4.77,29.65-3.57,43.19,4.76
		c14.19,8.72,20.69,22.23,22.15,38.36c0.81,8.93,0.22,17.81-3.43,26.2c-0.41,0.93-1.4,1.61-2.12,2.4c-0.44-1.01-1.18-1.99-1.26-3.02
		c-1.02-12.74-7.35-20.98-19.45-24.11c-3.57-0.92-7.55-0.33-11.34-0.36C447.34,185.49,446.4,185.77,444.89,186z"/>
</g>
<g>
	<path class="st0" d="M273.47,334.69c5.01,0.75,10,1.44,14.96,2.25c15.78,2.56,31.53,2.65,47.34,0.01
		c7.75-1.3,15.43-3.61,23.51-1.75c12.81,2.94,23.66,8.52,27.72,21.98c3.5,11.6-0.19,23.71-12.48,28.82
		c-11.76,4.89-23.95,0.99-29.56-9.63c-6.99-13.23,1.14-28.86,16.39-31.52c1.16-0.2,2.32-0.37,3.58-0.58
		c-2.24-4.29-8.61-6.24-14.36-4.77c-7.78,1.99-12.29,7.54-14.21,14.7c-2.01,7.48-3.62,15.29-3.84,23
		c-0.61,21.02-0.44,42.07-0.44,63.11c0,2.95-0.64,3.99-3.81,4.99c-6.43,2.03-12.65,4.95-18.64,8.1
		c-8.64,4.55-16.74,10.21-25.57,14.33c-9.35,4.36-19.51,5.44-29.67,2.69c-9.94-2.7-15.79-9.81-18.52-19.34
		c-1.71-5.95-2.41-12.19-3.65-18.7c-0.66,0.65-1.42,1.31-2.06,2.05c-6.8,7.91-15.46,12.21-25.78,13.08
		c-7.41,0.62-14.77,0.52-21.51-3.35c-16.35-9.4-16.9-31.71-1.1-43.03c7.66-5.49,16.43-7.9,25.57-8.91c7.21-0.8,14.5-0.98,21.76-1.29
		c2.2-0.1,3.58-0.52,3.49-3.13c-0.31-9.79,0.06-19.64-0.93-29.36c-0.94-9.23-5.41-16.83-14.85-20.03
		c-5.55-1.88-10.92-1.13-15.28,3.23c-0.84,0.84-1.32,2.05-2.08,3.28c3.84,0.73,7.26,0.98,10.4,2.05
		c9.43,3.21,15.11,12.84,13.71,22.66c-1.41,9.93-10.1,17.92-20,18.4c-11.39,0.55-20.4-4.77-24.1-14.22
		c-4.15-10.62-0.82-23.35,8.11-30.48c13.05-10.42,28.13-12.3,44.03-9.91c9.62,1.45,18.37,5.13,25.89,11.5
		c9.36,7.93,13.6,18.27,13.78,30.25c0.37,25.44,0.45,50.89,0.71,76.34c0.03,2.52,0.17,5.08,0.69,7.54c0.85,4.05,4.37,5.62,8.1,3.81
		c4.3-2.08,6.67-5.93,7.77-10.2c1.69-6.57,3.39-13.29,3.79-20.02c0.89-14.94,1.36-29.93,1.29-44.9c-0.06-12.39-2.53-24.5-7.58-35.93
		c-2.36-5.35-5.78-9.91-11.22-12.51C272.71,338.26,272.57,336.88,273.47,334.69z M233.21,406.3c-0.21-0.03-0.42-0.06-0.63-0.09
		c0-2.42,0.03-4.84-0.01-7.26c-0.05-3.3-0.87-3.94-4.02-2.94c-4.34,1.38-7.76,4.12-10.38,7.77c-5.05,7.06-7.05,14.64-2.99,22.86
		c1.71,3.46,4.24,6.6,8.53,6.12c4.14-0.47,6.07-4.01,6.78-7.64C231.7,418.92,232.33,412.59,233.21,406.3z"/>
	<path class="st0" d="M755.14,443.9c-13.3-1.07-26.31-2.9-39.33-2.92c-13.02-0.02-26.04,1.76-39.46,2.79
		c-0.55-1.28-0.51-2.96,1.8-3.83c9.04-3.38,13.01-10.83,15.12-19.45c3.23-13.19,3.85-26.59,1.33-39.97
		c-1.23-6.53-3.22-12.91-9.59-16.56c-4.06-2.33-6.77-1.63-9.07,2.45c-3.78,6.71-4.88,14.22-5.09,21.66
		c-0.49,17.39-0.4,34.8-0.53,52.21c-0.03,4.5-0.02,4.5-4.5,4.74c-11.44,0.61-21.75,4.8-32.02,9.53c-5.82,2.68-12.23,4.12-18.45,5.84
		c-1.22,0.34-3.53,1.29-4-1.36c-0.41-2.28,1.14-2.95,3-3.55c11.91-3.83,17.46-15.98,16.16-28.54c-1.04,0.64-1.99,1.09-2.79,1.73
		c-11.28,8.99-23.86,15.48-38.06,18.12c-16.27,3.02-32.56,3.55-47.52-5.19c-15.21-8.89-24.15-22.5-27.64-39.64
		c-3.92-19.31,0.48-36.47,15-50.1c14.71-13.81,32.43-20.69,52.73-19.04c12.72,1.03,23.63,6.12,28.72,18.9
		c5.76,14.48,0.84,31.63-11.36,41.43c-8.75,7.03-18.97,10.45-29.91,12.09c-1.22,0.18-2.37,0.8-3.56,1.22
		c0.65,1.07,1.1,2.36,1.98,3.19c10.12,9.5,22.14,12.08,35.49,9.4c16.71-3.35,29.53-13.13,40.96-25.1
		c12.15-12.72,22.01-27.17,31.69-41.77c4.03-6.08,8.36-11.89,14.66-15.89c11.41-7.23,25.27-4.71,33.57,5.99
		c6.97,8.98,9.81,19.34,10.29,30.44c0.44,10.45,0.36,20.93,0.87,31.38c0.45,9.27,1.71,18.46,6.69,26.6
		c2.52,4.12,5.87,7.43,10.58,9.03C755.16,440.51,755.76,441.95,755.14,443.9z M553.05,364.38c0.62,12.74,1.36,22.39,5.39,31.41
		c2.3,5.15,3.25,5.22,6.74,0.91c0.35-0.43,0.7-0.85,1.01-1.3c5.55-7.88,7.4-16.85,7.41-26.24c0.01-8.42-1.01-16.71-5.62-24.1
		c-1.5-2.4-3.57-5.09-6.4-4.28c-1.96,0.56-4.14,3.18-4.7,5.29C555.04,353.03,553.89,360.18,553.05,364.38z"/>
	<path class="st0" d="M102.48,458.87c-1.62-1.6-3-3.6-4.89-4.73c-8.3-4.97-18.89-2.23-25.3,6.56c-9.29,12.74-9.08,36.32,5.14,47.47
		c8.41,6.6,18.19,7.96,28.48,6.29c15.64-2.54,25.77-11.87,29.95-26.76c5.14-18.32,1.8-35.18-12.06-49.02
		c-5.6-5.59-12.79-8.17-20.65-8.31c-10.57-0.19-21.16-0.14-31.73-0.04c-2.59,0.02-3.72-0.53-3.71-3.43c0-2.85,1.24-3.38,3.6-3.19
		c1.35,0.11,2.72,0.02,4.09,0.02c0.06-0.32,0.12-0.64,0.18-0.96c-0.98-0.58-1.94-1.21-2.96-1.72c-18.94-9.61-27.23-27.51-25-47.58
		c2.17-19.63,14.36-31.48,32.23-37.53c19.02-6.43,37.72-5.32,55.25,5.39c3.3,2.02,7.43,1.11,9.62-2.29c0.22-0.34,0.25-0.8,0.51-1.65
		c-1.4-0.26-2.62-0.54-3.86-0.71c-9.6-1.3-16.55-10.32-14.8-19.21c2.1-10.64,12.14-17.44,21.92-14.86
		c10.82,2.86,17.11,10.39,17.17,20.55c0.07,11.34-6.11,19.55-17,22.61c-1.68,0.47-3.34,1-5.53,1.66
		c11.47,12.91,15.66,27.67,11.78,44.21c-4,17.05-16.05,26.65-31.93,33.26c1.88,0.48,3.75,1.04,5.66,1.41
		c12.68,2.51,24.53,6.94,34.81,14.99c20.86,16.35,21.22,42.93,0.83,60.18c-9.8,8.29-21.25,13.1-33.59,16.12
		c-13.81,3.38-27.84,4.6-41.97,3.58c-16.24-1.18-32.16-3.99-46.16-13.11c-6.88-4.48-12.35-10.19-14.64-18.45
		c-2.62-9.47-0.51-17.88,5.54-25.35c7.15-8.83,16.93-13.51,27.56-16.57c8.64-2.49,17.53-3.45,26.49-2.63
		c12.82,1.18,23.67,5.84,29.78,18.16c5.1,10.27,2.77,23.22-5.55,30.55c-7.91,6.98-21.75,8.12-30.22,2.5
		c-7.92-5.26-11.31-15.84-7.83-24.49C77.46,462.39,87,457.1,96.8,459c1.59,0.31,3.16,0.66,4.75,1
		C101.85,459.62,102.17,459.25,102.48,458.87z M115.34,380.08c0-4.4,0.34-8.83-0.07-13.19c-0.82-8.76-1.98-17.54-6.66-25.28
		c-3.95-6.54-9.95-6.86-13.56-0.16c-2.85,5.31-4.9,11.32-5.97,17.26c-2.56,14.27-2.48,28.7-0.13,43.03c1.07,6.52,2.6,13,7.04,18.22
		c3.36,3.95,7.74,4.04,10.93-0.03c1.93-2.45,3.47-5.36,4.54-8.31C115.17,401.44,115.85,390.8,115.34,380.08z"/>
	<path class="st0" d="M459.43,352.53c0-1.26,0-2.53,0-3.79c-0.01-9.03,0.06-18.07-0.09-27.1c-0.04-2.74,0.85-3.61,3.59-3.59
		c17.52,0.13,35.03,0.09,52.55,0.23c1.13,0.01,2.25,1.08,3.37,1.66c-0.82,1.1-1.41,2.71-2.51,3.21c-7.43,3.39-11.24,9.6-13.6,16.96
		c-3.06,9.55-3.75,19.48-3.73,29.38c0.03,13.86,0.47,27.74,1.25,41.58c0.39,7.04,2.34,13.86,6.19,19.98
		c2.47,3.94,5.75,6.82,10.01,8.77c1.09,0.5,1.64,2.19,2.44,3.33c-1.12,0.55-2.23,1.58-3.35,1.58c-18.51,0.1-37.02,0.3-55.52-0.02
		c-13.58-0.24-26.63-3.15-38.44-10.32c-15.21-9.24-23.96-22.85-27.25-40.21c-2.8-14.78-0.92-28.92,5.61-42.42
		c3.89-8.05,9.32-14.95,18.07-17.85c12.16-4.03,22.81-0.3,31.86,8.13c3.32,3.09,5.89,7,8.81,10.53
		C458.93,352.56,459.18,352.55,459.43,352.53z M458.17,439.81c0.33-0.22,0.65-0.43,0.98-0.65c0.12-0.52,0.34-1.04,0.33-1.57
		c-0.12-20.6-0.03-41.21-0.57-61.79c-0.13-5.13-1.84-10.37-3.65-15.26c-1.4-3.79-4.91-4.13-7.6-1.09c-1.79,2.02-3.41,4.41-4.37,6.92
		c-8.97,23.44-4.71,45.36,8.15,66.1C453.17,435.24,455.9,437.38,458.17,439.81z"/>
	<path class="st0" d="M631.17,391.65c0-3.04-0.04-6.08,0.01-9.11c0.14-9.42-0.83-18.69-3.98-27.62
		c-2.51-7.11-6.62-12.85-13.91-15.88c-0.88-0.37-1.29-1.89-1.92-2.88c1.01-0.34,2.06-1.05,3.03-0.95
		c8.53,0.82,17.04,2.06,25.58,2.64c8.71,0.6,17.36-0.22,25.86-2.44c3.88-1.01,4.14-0.45,4.54,3.48c0.66,6.53-1.39,11.94-5.22,17.15
		c-8.63,11.74-17.97,22.83-28.75,32.65c-1.35,1.23-2.86,2.29-4.29,3.43C631.81,391.97,631.49,391.81,631.17,391.65z"/>
</g>
<g>
	<path class="st0" d="M358.13,557.31c0-0.51,0.08-0.77-0.01-0.98c-0.44-0.99-0.86-2-1.41-2.93c-0.29-0.48-0.84-0.83-1.29-1.23
		c-1.41-1.24-2.56-2.65-3.53-4.21c-2.32-3.73-2.61-7.75-2.17-11.86c0.17-1.58,0.75-3.12,1.11-4.68c0.1-0.45,0.16-0.92,0.15-1.39
		c-0.03-1.15,0.61-2.08,1.2-3.01c0.42-0.66,1.23-0.66,1.61,0.03c0.35,0.64,0.61,1.4,0.61,2.1c0.01,1.45,0.59,2.68,1.28,3.93
		c0.71,1.29,1.26,2.64,1.94,3.94c2.07,3.95,1.79,8.18,1.77,12.37c0,1.23-0.45,2.47-0.39,3.69c0.05,1.2,0.44,2.4,0.74,3.59
		c0.24,0.96,0.63,1.89,0.86,2.84c0.3,1.23,0.56,2.48,0.77,3.73c0.21,1.25,0.35,2.51,0.68,3.82c0.3-0.84,0.67-1.66,0.89-2.51
		c0.33-1.26,0.62-2.54,0.82-3.82c0.49-3.27,0.55-6.5-0.18-9.79c-0.48-2.15-0.47-4.46-0.24-6.66c0.21-2.12,0.95-4.21,1.52-6.3
		c0.14-0.51,0.49-0.99,0.82-1.44c0.38-0.52,1.5-0.71,2.04-0.28c0.47,0.37,0.91,0.86,1.14,1.37c0.35,0.79,0.53,1.65,0.73,2.48
		c0.71,3.03,1.06,6.11,1.05,9.21c-0.01,3.1-0.12,6.21-0.37,9.3c-0.08,1.01-0.75,1.98-1.14,2.97c-0.42,1.09-0.78,2.21-1.24,3.29
		c-0.69,1.61-1.48,3.19-2.16,4.8c-0.45,1.06-1.4,1.66-2.26,2.38c-0.33,0.28-0.42,0.89-0.43,1.36c-0.07,2.36-0.08,4.71-0.11,7.07
		c-0.01,0.6-0.58,1.25,0.25,1.76c0.52-0.94,1.1-1.87,1.55-2.85c0.28-0.61,0.31-1.31,0.53-1.94c0.61-1.74,1.24-3.47,1.9-5.19
		c0.34-0.9,0.71-1.79,1.14-2.65c0.69-1.42,1.4-2.84,2.18-4.23c0.62-1.1,1.35-2.17,2.07-3.22c0.58-0.85,1.17-1.69,1.83-2.48
		c1.09-1.31,2.67-2.09,4.16-2.95c0.47-0.27,1.44,0.16,1.45,0.75c0.01,1.18-0.1,2.37-0.34,3.53c-0.21,1.04-0.68,2.03-1,3.05
		c-0.58,1.86-1.13,3.73-1.68,5.6c-0.19,0.66-0.19,1.38-0.5,1.98c-0.93,1.87-1.87,3.74-2.99,5.52c-0.68,1.09-1.74,1.97-2.54,3.01
		c-0.51,0.66-0.77,1.48-1.31,2.12c-0.79,0.93-1.86,1.69-2.58,2.66c-0.87,1.16-1.98,2.05-3.1,2.95c-0.23,0.18-0.48,0.36-0.75,0.46
		c-1.42,0.51-1.58,0.78-1.23,2.5c0.73-0.72,1.35-1.34,1.98-1.95c0.88-0.86,1.68-1.81,2.67-2.55c0.63-0.47,1.54-0.63,2.33-0.9
		c0.95-0.33,1.89-0.72,2.87-0.91c0.47-0.09,1.11,0.14,1.54,0.41c0.21,0.13,0.22,0.71,0.1,1.01c-0.16,0.41-0.53,0.77-0.82,1.14
		c-0.76,0.94-1.47,1.92-2.33,2.79c-0.99,0.99-2.05,1.94-3.2,2.78c-1.31,0.97-2.73,1.82-4.15,2.67c-0.35,0.21-0.83,0.26-1.26,0.32
		c-0.94,0.13-1.36,0.66-1.64,1.42c-0.42,1.12-0.9,2.21-1.45,3.54c0.73-0.29,1.37-0.46,1.92-0.78c1.05-0.6,2.12-1.2,3.04-1.95
		c1.53-1.24,2.98-2.57,4.41-3.92c0.7-0.66,1.3-1.4,1.88-2.15c0.76-0.97,1.43-1.99,2.2-2.95c1.06-1.32,2.06-2.71,3.31-3.88
		c1.25-1.18,2.72-2.18,4.18-3.16c1.39-0.93,2.88-1.75,4.36-2.58c0.66-0.37,1.37-0.74,2.11-0.91c0.48-0.11,1.27-0.01,1.54,0.28
		c0.32,0.34,0.45,1.08,0.27,1.5c-0.95,2.21-1.95,4.41-3.08,6.55c-1.07,2.03-2.34,3.98-3.49,5.98c-0.63,1.1-1.18,2.24-1.78,3.36
		c-1.38,2.58-3.18,4.86-5.79,6.55c-0.55,0.36-1.15,0.67-1.77,0.89c-1.03,0.37-2.1,0.66-3.16,0.98c-3.69,1.11-7.51,0.72-11.29,0.75
		c-0.91,0.01-1.85,0.9-1.59,1.69c0.06,0.18,0.52,0.4,0.77,0.37c1.42-0.14,2.84-0.33,4.25-0.55c1.28-0.2,2.54-0.48,3.81-0.72
		c1.94-0.37,3.92-0.61,5.81-1.13c1.96-0.54,3.85-1.3,5.71-2.06c1.21-0.5,1.61-1.7,2.33-2.61c1.25-1.57,2.49-3.16,3.73-4.73
		c1.2-1.52,2.42-3.04,3.61-4.57c1.21-1.55,2.45-3.08,3.56-4.69c0.74-1.07,1.26-2.27,1.9-3.4c1.3-2.3,1.12-4.88,1.76-7.3
		c0.29-1.1,0.52-2.22,0.91-3.29c0.79-2.19,1.66-4.35,1.67-6.72c0.01-0.8,0.48-1.59,0.73-2.37c0.34,0.09,0.45,0.09,0.46,0.12
		c0.37,1.31,1.15,2.57,0.53,4.02c-0.28,0.65-0.28,1.4-0.47,2.09c-0.19,0.71-0.46,1.4-0.7,2.1c-0.29,0.87-0.63,1.73-0.87,2.62
		c-0.31,1.13-0.55,2.28-0.79,3.43c-0.04,0.19,0.03,0.41,0.07,0.8c0.83-1.16,1.54-2.17,2.26-3.17c0.64-0.89,1.24-1.8,1.94-2.64
		c1.27-1.52,2.57-3.03,3.94-4.48c1.34-1.41,2.74-2.78,4.22-4.07c0.39-0.34,1.24-0.41,1.81-0.31c0.22,0.04,0.38,0.9,0.37,1.38
		c-0.04,1.52-0.65,2.91-1.33,4.29c-0.54,1.11-0.77,2.34-1.28,3.47c-0.59,1.32-1.3,2.6-2.02,3.87c-0.52,0.91-1.19,1.75-1.7,2.67
		c-0.5,0.89-1.22,1.49-2.07,2.13c-1.26,0.95-2.68,1.54-4.11,2.11c-0.84,0.34-1.89,0.55-2.78,0.42c-0.97-0.14-1.3,0.24-1.67,0.83
		c-0.78,1.24-1.54,2.5-2.36,3.72c-0.78,1.15-1.58,2.29-2.45,3.38c-0.72,0.9-1.61,1.7-2.34,2.6c-1.14,1.4-2.21,2.85-3.31,4.28
		c-0.41,0.54-0.81,1.09-1.35,1.84c0.47,0,0.82,0.1,1.05-0.02c1.48-0.72,2.95-1.47,4.41-2.24c1.19-0.63,2.39-1.25,3.5-1.99
		c1.77-1.18,3.49-2.43,5.2-3.68c0.86-0.63,1.68-1.3,2.48-1.99c1.34-1.14,2.71-2.25,3.95-3.47c1.47-1.43,2.83-2.96,4.22-4.46
		c1.2-1.3,2.4-2.6,3.53-3.96c0.7-0.85,1.26-1.79,1.87-2.69c1.02-1.49,2.07-2.97,3.03-4.49c0.5-0.79,0.81-1.68,1.22-2.51
		c0.21-0.42,0.47-0.81,0.68-1.23c0.98-2,2-3.98,2.9-6c0.5-1.14,0.79-2.36,1.19-3.53c0.41-1.19,0.89-2.36,1.26-3.57
		c0.19-0.62,0.17-1.29,0.29-1.93c0.32-1.71,0.61-3.42,1-5.11c0.33-1.43,0.8-2.83,1.19-4.25c0.08-0.3,0.11-0.61,0.11-0.92
		c0.03-3.38,0.13-6.76,0.03-10.14c-0.05-1.85-0.4-3.69-0.7-5.52c-0.45-2.74-0.91-5.49-1.51-8.2c-0.49-2.22-1.1-4.43-1.83-6.6
		c-0.55-1.63-1.38-3.19-2.05-4.79c-0.44-1.06-0.8-2.14-1.25-3.2c-0.2-0.48-0.52-0.92-0.76-1.38c-0.57-1.07-1.09-2.17-1.69-3.22
		c-0.43-0.75-0.96-1.46-1.46-2.18c-0.93-1.34-1.87-2.67-2.81-4c-0.63-0.9-1.21-1.84-1.93-2.68c-1.36-1.59-2.75-3.17-4.21-4.68
		c-1.27-1.31-2.61-2.58-4-3.78c-1.44-1.25-2.96-2.42-4.47-3.59c-1.42-1.11-2.86-2.2-4.33-3.25c-0.82-0.58-1.72-1.07-2.6-1.57
		c-0.97-0.56-1.95-1.1-2.94-1.62c-0.99-0.52-1.99-1.02-3.01-1.49c-1.86-0.86-3.72-1.74-5.63-2.52c-1.2-0.49-2.49-0.81-3.73-1.21
		c-0.23-0.08-0.43-0.22-0.65-0.33c0.14-0.2,0.24-0.43,0.42-0.59c0.17-0.14,0.41-0.24,0.63-0.29c1.49-0.31,2.99-0.64,4.49-0.9
		c2.68-0.47,5.36-1.1,8.07-1.3c7.38-0.55,14.79-0.59,22.16,0.14c2.64,0.26,5.27,0.79,7.86,1.36c2.07,0.45,4.08,1.15,6.12,1.73
		c1.39,0.39,2.8,0.74,4.18,1.17c0.83,0.26,1.6,0.65,2.4,0.97c0.87,0.35,1.76,0.65,2.61,1.02c1.68,0.72,3.41,1.39,5.02,2.24
		c2.99,1.59,5.95,3.24,8.85,4.96c2.07,1.23,4.09,2.55,5.99,3.99c1.86,1.4,3.54,3,5.28,4.52c1.47,1.29,2.99,2.54,4.35,3.91
		c1.52,1.53,2.88,3.18,4.31,4.78c0.99,1.11,2,2.21,2.92,3.36c0.67,0.83,1.21,1.74,1.83,2.61c0.66,0.93,1.36,1.82,1.99,2.76
		c0.76,1.14,1.47,2.31,2.17,3.48c0.97,1.63,1.96,3.26,2.86,4.92c0.5,0.93,0.84,1.93,1.27,2.89c0.2,0.45,0.49,0.86,0.66,1.32
		c0.63,1.61,1.22,3.23,1.83,4.84c0.68,1.78,1.5,3.53,2.04,5.35c0.68,2.27,1.03,4.62,1.73,6.88c0.72,2.33,0.7,4.72,1.12,7.06
		c0.68,3.86,1.01,7.75,1.04,11.64c0.02,3.12-0.35,6.25-0.65,9.37c-0.22,2.24-0.54,4.49-0.96,6.71c-0.38,1.99-0.91,3.97-1.44,5.93
		c-0.52,1.93-1.09,3.85-1.7,5.76c-0.24,0.76-0.66,1.47-0.99,2.2c-0.09,0.2-0.22,0.39-0.26,0.6c-0.38,1.89-1.26,3.6-2.2,5.3
		c-0.5,0.9-0.82,1.88-1.28,2.8c-0.68,1.35-1.4,2.69-2.13,4.02c-0.57,1.02-1.15,2.04-1.79,3.03c-0.65,1.01-1.39,1.98-2.08,2.97
		c-0.39,0.56-0.75,1.14-1.14,1.7c-0.62,0.9-1.19,1.84-1.9,2.68c-1.76,2.1-3.49,4.24-5.41,6.22c-2.24,2.32-4.66,4.49-7.03,6.7
		c-0.91,0.85-1.87,1.68-2.87,2.45c-1.22,0.94-2.5,1.84-3.78,2.72c-1.58,1.08-3.16,2.16-4.79,3.17c-1.47,0.91-3,1.74-4.52,2.57
		c-1.15,0.63-2.32,1.24-3.51,1.81c-1.38,0.66-2.79,1.27-4.19,1.89c-0.53,0.24-1.07,0.48-1.62,0.68c-1.81,0.67-3.62,1.35-5.45,1.97
		c-1.15,0.39-2.33,0.68-3.5,1.02c-0.84,0.24-1.68,0.5-2.53,0.72c-2.69,0.71-5.38,1.35-8.2,1.56c-2.03,0.15-4.02,0.64-6.04,0.97
		c-0.37,0.06-0.75,0.11-1.12,0.11c-4.78,0.01-9.57,0.11-14.34-0.04c-2.19-0.07-4.36-0.66-6.55-0.99c-0.64-0.1-1.32-0.04-1.95-0.17
		c-2.29-0.46-4.58-0.95-6.86-1.45c-1.15-0.25-2.33-0.48-3.44-0.85c-1.98-0.65-3.92-1.39-5.88-2.09c-1.37-0.5-2.76-0.97-4.11-1.51
		c-1.3-0.52-2.6-1.07-3.84-1.69c-1.74-0.87-3.45-1.8-5.13-2.76c-1.78-1.01-3.55-2.05-5.27-3.14c-1.31-0.83-2.56-1.72-3.79-2.65
		c-1.06-0.79-2.03-1.68-3.06-2.5c-1.05-0.84-2.14-1.64-3.2-2.47c-0.42-0.33-0.84-0.69-1.21-1.06c-2.14-2.11-4.34-4.18-6.38-6.37
		c-1.36-1.47-2.47-3.14-3.71-4.7c-0.33-0.41-0.73-0.78-1.26-1.32c0.46-0.06,0.8-0.21,1.04-0.12c1.4,0.5,2.77,1.09,4.18,1.57
		c0.63,0.22,1.35,0.22,2.01,0.37c2.02,0.45,4,1.08,6.05,1.37c3.11,0.44,6.25,0.65,9.38,0.95c0.16,0.02,0.33-0.04,0.68-0.08
		c-0.16-0.52-0.18-1.04-0.45-1.42c-1.19-1.64-2.43-3.26-3.72-4.84c-0.2-0.25-0.77-0.41-1.13-0.36c-1.08,0.14-2.12,0.47-3.2,0.59
		c-1.43,0.17-2.88,0.21-4.32,0.32c-4.38,0.32-8.75-0.12-13.12-0.25c-0.29-0.01-0.74-0.31-0.81-0.54c-0.13-0.46,0.24-0.65,0.77-0.74
		c2.51-0.46,5-1.01,7.5-1.46c1.64-0.3,3.31-0.71,4.96-0.68c1.75,0.03,3.49,0.53,5.23,0.84c0.59,0.1,1.16,0.25,1.74,0.38
		c0.06-0.08,0.12-0.17,0.18-0.25c-0.51-0.54-0.99-1.11-1.54-1.61c-0.59-0.55-1.2-1.1-1.9-1.52c-0.3-0.18-0.89-0.11-1.28,0.02
		c-1.3,0.43-2.53,1.06-3.86,1.38c-1.9,0.46-3.86,0.75-5.81,1.01c-0.49,0.07-1.05-0.24-1.57-0.37c0.22-0.41,0.33-0.97,0.69-1.2
		c0.77-0.48,1.67-0.79,2.52-1.17c0.55-0.25,1.2-0.39,1.64-0.75c0.83-0.68,1.79-0.49,2.72-0.51c0.85-0.02,1.71,0,2.56,0
		c-0.18-1.1-1.36-1.6-2.46-1.1c-0.97,0.44-1.99,0.81-3.03,1.09c-2.14,0.57-3.98,1.62-5.8,2.73c-0.87,0.53-1.78,0.97-2.91,1.02
		c-1.53,0.07-3.05,0.36-4.58,0.51c-0.37,0.04-0.76-0.09-1.14-0.15c-0.03-0.09-0.06-0.19-0.1-0.28c0.44-0.28,0.85-0.73,1.34-0.81
		c2.88-0.46,5.31-1.61,7.32-3.53c0.51-0.49,1.22-0.81,1.79-1.37c-2.18-0.03-4.31,0.02-6.37-0.45c-0.02-0.11-0.04-0.22-0.06-0.33
		c0.47-0.27,0.9-0.65,1.41-0.8c1.45-0.43,2.93-0.81,4.42-1.13c0.98-0.22,2-0.3,3-0.46c0.27-0.05,0.52-0.18,0.79-0.28
		c-0.17-0.16-0.36-0.31-0.51-0.48c-0.56-0.64-1.05-0.39-1.79-0.13c-4.44,1.56-9.06,2.35-13.84,2.24c-0.24-0.01-0.47-0.24-0.71-0.37
		c0.13-0.18,0.22-0.46,0.41-0.53c1.11-0.45,2.24-0.85,3.37-1.25c0.69-0.24,1.38-0.51,2.09-0.66c2.49-0.53,4.98-1.01,7.55-1.52
		c0.07-0.56-0.52-0.54-1.01-0.55c-1.44-0.04-2.9,0.02-4.33-0.09c-3.11-0.23-6.15-0.78-9.13-1.63c-0.22-0.06-0.55-0.31-0.54-0.45
		c0.02-0.23,0.25-0.47,0.47-0.63c0.17-0.12,0.45-0.17,0.68-0.17c2.58-0.01,5.15-0.02,7.73,0.02c0.64,0.01,1.27,0.24,1.91,0.37
		c0.04-0.1,0.09-0.19,0.13-0.29c-0.79-0.45-1.54-1-2.39-1.34c-1.61-0.64-3.34-1.06-4.92-1.76c-1.65-0.73-3.22-1.62-4.75-2.54
		c-1.3-0.78-2.52-1.69-3.73-2.59c-0.62-0.46-1.19-1.01-1.69-1.58c-0.17-0.2-0.07-0.59-0.11-1.15c3.92,0.85,7.5,2.14,10.95,3.67
		c3.52,1.57,5.92,4.36,8.49,6.94c0.08-0.05,0.16-0.1,0.24-0.15c-0.47-0.9-0.94-1.8-1.41-2.7c-0.1-0.19-0.22-0.39-0.28-0.59
		c-0.23-0.9-0.45-1.8-0.65-2.71c-0.09-0.42-0.16-0.87-0.12-1.29c0.05-0.56,0.41-0.93,1-0.47c0.71,0.56,1.39,1.18,1.94,1.86
		c2,2.48,2.82,5.28,2.73,8.34c-0.01,0.43,0.41,0.96,0.8,1.29c1.32,1.13,2.7,2.21,4.08,3.29c0.26,0.21,0.6,0.34,1.03,0.42
		c-2.79-3.03-4.43-6.46-5.18-10.24c0.12-0.08,0.24-0.15,0.36-0.23c0.58,0.51,1.26,0.96,1.72,1.55c1.21,1.55,2.4,3.12,3.46,4.76
		c0.8,1.23,1.42,2.57,2.09,3.87c0.13,0.24,0.14,0.54,0.16,0.82c0.12,1.42,0.64,2.6,2.05,3.44c0.7,0.41,1.18,1.11,1.88,1.79
		c0.02-0.31,0.16-0.63,0.05-0.83c-0.9-1.65-1.86-3.26-2.77-4.9c-0.36-0.65-0.67-1.32-1-1.99c-0.75-1.52-1.57-3.02-2.23-4.57
		c-0.7-1.62-1.25-3.29-1.87-4.94c-0.5-1.33-1.03-2.66-1.51-4c-0.25-0.7-0.4-1.42-0.62-2.22c0.55-0.24,0.94-0.29,1.35,0.43
		c0.44,0.76,1.21,1.36,1.75,2.09c1.02,1.39,2.03,2.79,2.95,4.24c0.81,1.26,1.56,2.55,2.23,3.87c0.42,0.83,0.72,1.73,0.97,2.62
		c0.63,2.32,1.23,4.64,1.79,6.97c0.34,1.45,0.45,2.95,0.92,4.36c0.24,0.71,1.05,1.25,1.61,1.87c0.12-0.16,0.37-0.35,0.34-0.49
		c-0.22-1.09-0.48-2.17-0.75-3.25c-0.26-1.01-0.6-2-0.8-3.02c-0.23-1.15-0.39-2.31-0.5-3.48c-0.25-2.5-0.48-5-0.67-7.5
		c-0.03-0.35,0.17-0.72,0.26-1.07c0.16-0.01,0.32-0.01,0.48-0.02c0.47,1.22,0.98,2.42,1.41,3.65c0.77,2.22,1.5,4.46,2.24,6.7
		c0.07,0.2,0.08,0.43,0.09,0.64c0.01,2.76,0.06,5.52-0.02,8.27c-0.02,0.79-0.31,1.59,0.23,2.3c0.51,0.67,1.17,1.25,1.63,1.94
		c0.83,1.25,1.53,2.57,2.35,3.82c0.22,0.34,0.68,0.78,1.02,0.77c1.43-0.01,2.91,0.01,4.25-0.35c0.57-0.15,0.92-1.2,1.22-1.89
		c0.23-0.54-0.11-0.85-0.7-1.22c-1.38-0.87-2.8-1.8-3.84-2.98c-1.39-1.56-2.94-3.16-2.79-5.4c0.04-0.51,0.2-1.31,0.55-1.44
		c0.52-0.2,1.29,0,1.91,0.17c0.92,0.26,1.79,0.66,2.7,0.95c1.49,0.47,2.53,1.47,3.59,2.44c0.3,0.28,0.54,0.62,0.8,0.93
		c0.09-0.02,0.17-0.04,0.26-0.06c-0.11-0.34-0.12-0.75-0.34-1c-0.76-0.86-1.57-1.67-2.4-2.48c-1.1-1.07-2.19-2.15-3.35-3.16
		c-1.05-0.9-2.27-1.64-3.28-2.57c-1.03-0.95-1.93-2.02-2.8-3.09c-0.69-0.85-1.32-1.75-1.83-2.69c-0.55-1.02-1.04-2.08-1.36-3.17
		c-0.44-1.51-0.67-3.07-1.04-4.6c-0.37-1.56-0.88-3.09-1.19-4.66c-0.33-1.71-0.55-3.44-0.7-5.16c-0.08-0.97,0.52-1.33,1.59-1.15
		c0.29,0.05,0.59,0.11,1.15,0.21c-0.36-0.62-0.62-1.07-0.89-1.52c-0.48-0.79-0.96-1.58-1.45-2.37c-0.74-1.2-1.54-2.37-2.21-3.6
		c-0.64-1.17-1.63-2.08-2.57-3.03c-0.72-0.72-0.05-1.8,1.13-1.95c1.54-0.2,2.91,0.23,4.2,0.92c1.22,0.65,2.48,1.27,3.61,2.03
		c1.15,0.77,2.18,1.68,3.24,2.55c1.59,1.32,3.18,2.64,4.74,3.99c1.2,1.03,2.33,2.12,3.53,3.15c1.02,0.88,2.15,1.65,3.11,2.57
		c0.63,0.61,1.05,1.39,1.53,2.11c0.31,0.47,0.56,0.97,0.85,1.45c0.23,0.38,0.48,0.76,0.8,1.27c0-0.43,0.02-0.78,0-1.13
		c-0.13-1.55-0.32-3.09-0.39-4.64c-0.04-0.94-0.58-1.48-1.38-1.91c-1.48-0.78-3.06-1.42-4.44-2.33c-1.85-1.22-3.61-2.57-5.29-3.97
		c-1.31-1.09-2.55-2.28-3.63-3.57c-1.51-1.81-2.98-3.68-4.19-5.65c-0.63-1.02-0.83-2.33-0.92-3.53c-0.06-0.77,0.39-1.59,0.72-2.34
		c0.2-0.46,0.64-0.48,1.06-0.09c1.24,1.17,2.49,2.32,3.74,3.48c1.78,1.66,3.49,3.38,5.37,4.95c1.52,1.27,3.25,2.33,4.86,3.52
		C357.01,556.16,357.44,556.66,358.13,557.31z M448.04,570.55c-0.11-0.03-0.23-0.06-0.34-0.09c-0.46-1.7-0.98-3.39-1.38-5.1
		c-0.42-1.81-0.73-3.65-1.08-5.47c-0.1-0.52-0.05-1.08-0.25-1.56c-0.71-1.77-1.39-3.57-2.3-5.27c-0.61-1.13-1.55-2.12-2.43-3.11
		c-0.29-0.33-1.04-0.46-1.16,0.12c-0.44,2.03-1.26,4.03-0.89,6.15c0.46,2.59,0.95,5.18,1.44,7.77c0.43,2.24,1.14,4.41,2.58,6.3
		c0.78,1.01,1.8,1.88,2.65,2.85c0.56,0.65,1.79,1.04,1.3,2.15c-0.54,1.22-1.2,2.39-1.82,3.58c-0.11,0.21-0.33,0.37-0.46,0.58
		c-0.91,1.5-1.79,3-2.72,4.49c-0.11,0.18-0.43,0.27-0.78,0.48c-0.03-0.43-0.06-0.72-0.06-1.02c0-1.21,0.08-2.43-0.01-3.63
		c-0.11-1.44-0.32-2.87-0.59-4.3c-0.16-0.84-0.48-1.66-0.76-2.48c-0.37-1.11-0.65-2.27-1.19-3.3c-0.64-1.22-1.48-2.37-2.35-3.48
		c-0.29-0.37-0.98-0.76-1.4-0.7c-0.71,0.1-0.93,0.75-0.77,1.4c0.18,0.72,0.4,1.44,0.57,2.16c0.4,1.74,0.77,3.5,1.19,5.24
		c0.49,2.01,1.01,4.02,1.54,6.02c0.27,1.01,0.56,2.02,0.88,3.02c0.23,0.7,0.4,1.46,0.82,2.06c0.65,0.92,0.82,1.54-0.13,2.5
		c-1.72,1.72-3.17,3.65-4.75,5.47c-0.51,0.59-1.08,1.16-1.64,1.72c-0.26,0.26-0.56,0.49-0.84,0.74c-0.09-0.05-0.19-0.1-0.28-0.16
		c0.08-0.44,0.1-0.91,0.25-1.33c0.93-2.52,1.34-5.12,1.27-7.76c-0.06-2.17-0.28-4.33-0.51-6.49c-0.05-0.48-0.4-0.96-0.71-1.39
		c-0.08-0.11-0.57-0.11-0.77,0c-0.28,0.14-0.55,0.4-0.67,0.67c-0.65,1.54-1.24,3.1-1.85,4.65c-0.22,0.57-0.56,1.14-0.62,1.72
		c-0.16,1.61-0.29,3.22-0.27,4.83c0.03,2.39,0.11,4.79,1.4,7.01c0.37,0.64,0.16,1.25-0.63,1.75c-0.78,0.49-1.4,1.18-2.03,1.84
		c-0.14,0.14,0,0.5,0.01,0.76c0.24-0.04,0.49-0.05,0.71-0.12c0.19-0.06,0.36-0.19,0.5-0.33c1.36-1.28,2.72-2.55,4.05-3.86
		c0.4-0.39,0.62-0.46,1.17-0.15c1.92,1.07,4.03,1.84,6.31,1.54c1.88-0.24,3.74-0.74,5.53-1.32c1.91-0.61,3.76-1.4,5.56-2.24
		c0.46-0.21,0.77-0.91,0.88-1.43c0.12-0.6-0.52-0.7-1.06-0.75c-1.19-0.09-2.38-0.26-3.56-0.25c-1.43,0.01-2.86,0.12-4.27,0.29
		c-1.86,0.22-3.71,0.53-5.56,0.79c-0.47,0.07-0.94,0.09-1.45,0.14c0.03-0.26,0.01-0.33,0.05-0.37c1.29-1.49,2.59-2.97,3.88-4.46
		c1.02-1.18,1.52-1.39,2.63-0.83c1.52,0.76,3.15,1.1,4.85,1.33c3.65,0.48,6.99-0.13,10.04-2.04c0.92-0.57,1.92-1.03,2.87-1.57
		c1.49-0.85,2.99-1.68,4.42-2.6c1.58-1.02,3.14-2.08,4.61-3.22c1.16-0.91,2.22-1.93,3.23-2.98c0.53-0.55,0.09-1.41-0.72-1.42
		c-1.54-0.01-3.11-0.01-4.62,0.23c-2.08,0.34-4.11,0.88-6.15,1.38c-1.93,0.48-3.87,0.94-5.75,1.55c-1.72,0.56-3.39,1.25-5.03,1.97
		c-1.68,0.75-3.3,1.61-4.95,2.42c-0.21,0.1-0.45,0.16-0.92,0.31c0.16-0.54,0.2-0.88,0.37-1.15c0.7-1.18,1.39-2.37,2.18-3.5
		c0.25-0.36,0.74-0.79,1.15-0.82c1.74-0.13,3.49-0.18,5.14-0.79c1.03-0.38,2.16-0.64,3.08-1.18c1.38-0.8,2.63-1.79,3.91-2.73
		c1.58-1.16,3.16-2.33,4.68-3.56c1.18-0.95,2.33-1.94,3.34-3.03c0.33-0.35,0.25-1.09,0.16-1.63c-0.02-0.12-0.83-0.26-1.24-0.2
		c-0.52,0.08-1.01,0.35-1.49,0.57c-1.13,0.51-2.29,0.99-3.37,1.58c-2,1.11-3.95,2.29-5.92,3.44c-1.57,0.92-3.11,1.91-4.74,2.75
		c-0.67,0.34-1.17,1.2-2.25,0.85c0.05-0.28,0.06-0.53,0.14-0.76c0.51-1.48,1-2.97,1.55-4.44c0.25-0.64,0.66-1.07,1.58-1.21
		c1.18-0.18,2.36-0.61,3.44-1.12c1.19-0.56,2.29-1.3,3.38-2.01c1.4-0.91,2.82-1.81,4.11-2.85c1.14-0.91,2.1-2,3.13-3.01
		c0.59-0.58,1.2-1.14,1.72-1.77c0.56-0.68,1-1.43,1.51-2.15c0.66-0.94,1.39-1.85,1.97-2.83c0.7-1.18,1.3-2.41,1.87-3.64
		c0.52-1.11,1-2.24,1.4-3.39c0.1-0.29-0.04-0.83-0.28-0.99c-0.24-0.16-0.79-0.06-1.14,0.07c-0.86,0.32-1.69,0.71-2.53,1.08
		c-1.27,0.57-2.58,1.1-3.8,1.76c-1.02,0.56-1.9,1.33-2.89,1.93c-2.26,1.38-4.41,2.88-6.22,4.72c-1.12,1.14-2.22,2.35-3.07,3.66
		c-1.05,1.62-1.83,3.38-2.86,5.35c-0.19-0.61-0.39-0.98-0.4-1.37c-0.04-1.3-0.06-2.61,0.01-3.91c0.02-0.4,0.29-0.85,0.58-1.18
		c0.39-0.45,0.99-0.75,1.38-1.2c1.27-1.47,2.57-2.94,3.71-4.5c1.03-1.41,1.9-2.91,2.79-4.4c0.32-0.53,0.62-1.11,0.75-1.69
		c0.45-2.03,0.83-4.07,1.23-6.1c0.02-0.09,0.05-0.18,0.07-0.27c0.37-1.85,0.85-3.68,1.09-5.54c0.18-1.38,0.03-2.79,0.09-4.19
		c0.03-0.76-0.2-1.32-1.09-1.61c-0.32,0.21-0.81,0.38-1.01,0.7c-0.91,1.39-1.8,2.8-2.56,4.25c-0.7,1.33-1.22,2.75-1.85,4.11
		c-0.63,1.38-1.46,2.7-1.92,4.12c-0.74,2.26-1.22,4.59-1.86,6.88c-0.18,0.64-0.5,1.24-0.75,1.86c-0.24-0.22-0.29-0.38-0.28-0.53
		c0.24-2.24,0.46-4.49,0.74-6.73c0.4-3.21,0.06-6.37-0.7-9.49c-0.21-0.86-0.56-1.73-1.06-2.49c-0.58-0.89-1.02-1.75-1.11-2.8
		c-0.14-1.68-0.06-3.39-1.07-4.94c-0.46-0.7-1.05-1.14-1.43-0.74c-0.53,0.54-1.12,1.08-1.02,1.94c0.06,0.51,0.03,1.06-0.09,1.56
		c-0.3,1.23-0.68,2.45-1,3.68c-0.04,0.15,0.11,0.34,0.15,0.51c0.07,0.31,0.18,0.63,0.15,0.95c-0.1,1.23-0.27,2.45-0.35,3.67
		c-0.04,0.58-0.03,1.2,0.16,1.75c0.62,1.74,1.25,3.48,2.03,5.17c0.81,1.77,1.52,3.66,2.76,5.17c1.13,1.39,0.71,2.65,0.58,4.01
		c-0.01,0.15-0.3,0.28-0.46,0.42c-0.13-0.12-0.28-0.23-0.38-0.37c-0.71-1.03-1.38-2.08-2.11-3.1c-0.33-0.46-0.78-0.84-1.13-1.28
		c-1.44-1.81-2.99-3.53-4.96-4.9c-0.36-0.25-0.9-0.3-1.36-0.45c-0.12,0.45-0.37,0.91-0.34,1.36c0.11,1.7,1.22,3.08,2.02,4.54
		c0.56,1.02,1.4,1.92,1.97,2.94c1.19,2.14,3.02,3.69,5.38,4.68c1.01,0.42,1.37,0.93,1.33,1.91c-0.16,4.29,0.3,8.61-0.79,12.85
		C448.46,568.99,448.25,569.77,448.04,570.55z M385.82,580.14c-0.64,0.35-1.08,0.57-1.5,0.83c-2.2,1.34-4.59,2.48-6.52,4.08
		c-1.9,1.57-3.36,3.58-4.94,5.44c-1,1.18-1.79,2.51-2.81,3.67c-1.08,1.23-2.27,2.4-3.52,3.5c-1,0.88-2.11,1.69-3.26,2.42
		c-1.26,0.8-2.64,1.45-3.93,2.23c-0.52,0.31-0.91,0.8-1.36,1.21c0.05,0.08,0.1,0.15,0.16,0.23c3.3-0.11,6.59,0.22,9.88-0.64
		c2.59-0.68,4.87-1.73,6.74-3.37c1.76-1.54,2.88-3.53,3.87-5.56c0.54-1.11,1.18-2.19,1.78-3.28c0.68-1.24,1.37-2.47,2.07-3.71
		c0.45-0.8,0.93-1.59,1.36-2.4c0.68-1.3,1.32-2.61,1.97-3.92C385.86,580.75,385.82,580.61,385.82,580.14z M336.53,554.29
		c0.09,0.48,0.07,0.69,0.16,0.83c0.61,0.86,1.29,1.69,1.87,2.57c0.94,1.43,1.84,2.88,2.73,4.34c0.61,0.99,1.09,2.04,1.77,2.98
		c1.09,1.51,2.19,3.03,3.5,4.38c1.37,1.42,2.92,2.73,4.52,3.94c1.58,1.2,3.28,2.28,5.01,3.3c1.62,0.96,3.36,1.76,5.15,2.69
		c-0.01-0.24,0.01-0.58-0.06-0.9c-0.16-0.7-0.36-1.38-0.56-2.07c-0.09-0.29-0.19-0.58-0.32-0.86c-0.33-0.7-0.68-1.39-1.02-2.08
		c-0.81-1.64-1.55-3.33-3.05-4.59c-1.28-1.07-2.63-2.08-3.91-3.15c-1.69-1.43-3.4-2.85-4.99-4.37c-2.09-2.01-4.39-3.78-6.97-5.25
		C339.23,555.41,337.98,554.95,336.53,554.29z M358.08,596.52c0-0.87,0.19-1.69-0.04-2.4c-0.53-1.64-1.18-3.26-1.93-4.83
		c-0.85-1.79-1.73-3.59-2.85-5.24c-1.52-2.23-3.3-4.31-4.93-6.47c-0.71-0.94-1.38-1.92-1.97-2.92c-1.08-1.82-2.25-3.58-3.79-5.13
		c-0.47-0.47-0.82-1.04-1.26-1.54c-0.28-0.31-0.62-0.58-0.94-0.86c-0.12,0.08-0.24,0.15-0.37,0.23c0.18,0.5,0.41,1,0.53,1.51
		c0.54,2.26,1.11,4.51,1.54,6.78c0.38,2.03,0.78,4.02,1.57,5.97c0.52,1.27,1.1,2.47,1.95,3.57c1.59,2.07,3.62,3.77,5.6,5.51
		c0.48,0.42,0.98,0.82,1.46,1.24c1.08,0.94,2.12,1.92,3.25,2.81C356.61,595.3,356.78,596.39,358.08,596.52z M378.65,558.94
		c-0.11-0.08-0.21-0.16-0.32-0.24c-0.4,0.24-0.81,0.46-1.2,0.72c-1.99,1.31-3.25,3.13-4.33,5.07c-0.71,1.28-1.4,2.56-2.05,3.87
		c-0.65,1.3-1.24,2.64-1.86,3.95c-0.17,0.37-0.35,0.73-0.54,1.09c-0.51,0.96-1.11,1.84-1.38,2.95c-0.24,0.99-0.13,2.2-1.18,2.98
		c-0.12,0.09-0.13,0.35-0.13,0.53c0,1.82-1.02,3.26-2.06,4.72c-0.33,0.47-0.45,1.07-0.66,1.6c0.1,0.05,0.2,0.09,0.3,0.14
		c0.27-0.11,0.61-0.17,0.8-0.35c1.1-1.03,2.21-2.06,3.24-3.15c0.49-0.51,0.8-1.15,1.24-1.71c0.8-1.01,1.69-1.96,2.44-2.99
		c0.75-1.03,1.16-2.31,2.08-3.18c1.1-1.04,1.49-2.32,1.97-3.53c0.77-1.95,1.18-4.03,1.72-6.05c0.36-1.34,0.65-2.7,1.03-4.03
		C378.01,560.53,378.35,559.74,378.65,558.94z M363.64,569.6c1.41-1.19,1.85-2.54,2.24-3.96c0.34-1.24,0.87-2.43,1.36-3.64
		c0.12-0.3,0.51-0.54,0.58-0.84c0.4-1.63,0.99-3.25,1.06-4.9c0.24-5.67,0.34-11.34-1.05-16.93c-0.15-0.59-0.52-1.13-0.79-1.7
		c-0.11,0.02-0.22,0.03-0.33,0.05c-0.2,0.66-0.42,1.32-0.6,1.99c-0.42,1.58-1.02,3.14-1.17,4.74c-0.2,2.23-0.18,4.45,0.4,6.71
		c0.54,2.11,0.4,4.38,0.34,6.58c-0.04,1.52-0.43,3.04-0.72,4.55c-0.2,0.99-0.54,1.96-0.76,2.95c-0.26,1.21-0.47,2.43-0.67,3.65
		C363.49,569.08,363.59,569.29,363.64,569.6z M357.39,552.06c0.29-0.95,0.71-1.75,0.74-2.57c0.08-2.06-0.01-4.11-0.39-6.19
		c-0.49-2.66-1.23-5.19-2.61-7.58c-0.2-0.35-0.49-0.67-0.62-1.04c-0.45-1.28-0.83-2.58-1.27-3.87c-0.06-0.16-0.32-0.4-0.45-0.38
		c-0.22,0.04-0.48,0.21-0.58,0.39c-0.12,0.21-0.08,0.48-0.11,0.73c-0.17,1.29-0.21,2.61-0.52,3.87c-0.95,3.82-0.42,7.49,1.28,11.03
		c0.52,1.07,1.39,2.02,2.16,2.98C355.69,550.28,356.46,551.04,357.39,552.06z M347.02,572.05c-0.08,0.06-0.15,0.11-0.23,0.17
		c0.75,1.22,1.44,2.46,2.25,3.64c0.9,1.31,1.91,2.57,2.86,3.85c0.96,1.3,1.93,2.6,2.87,3.91c0.66,0.92,1.4,1.83,1.87,2.83
		c0.93,1.96,1.7,3.98,2.55,5.97c0.07,0.17,0.22,0.31,0.34,0.47c0.08-0.01,0.17-0.02,0.25-0.03c0.29-1.6,0.6-3.19,0.85-4.79
		c0.17-1.04,0.22-2.09,0.37-3.14c0.15-1.03,0.41-2.04,0.52-3.07c0.02-0.22-0.35-0.52-0.61-0.71c-0.33-0.24-0.74-0.39-1.09-0.62
		c-0.67-0.45-1.26-1.01-1.97-1.39c-1.12-0.61-2.37-1.04-3.46-1.69C351.74,575.9,349.18,574.19,347.02,572.05z M359.19,563.53
		c0.26-1.01-0.28-1.79-0.62-2.66c-0.88-2.2-2.78-3.57-4.65-4.98c-1.49-1.12-3.14-2.09-4.5-3.32c-2.06-1.86-3.93-3.9-5.89-5.85
		c-0.25-0.25-0.6-0.41-1.03-0.7c-0.07,0.39-0.11,0.6-0.14,0.8c-0.21,1.55,1.04,2.61,1.73,3.81c0.79,1.37,1.96,2.57,3.06,3.77
		c1.33,1.45,2.65,2.92,4.18,4.19c1.55,1.28,3.32,2.34,5.04,3.44C357.25,562.59,358.22,563.02,359.19,563.53z M407.04,568.04
		c-0.11-0.05-0.22-0.09-0.33-0.14c-3.76,4.78-7.53,9.55-11.29,14.33c0.08,0.08,0.15,0.15,0.23,0.23c0.33,0,0.72,0.1,0.98-0.02
		c0.98-0.46,1.92-1,2.89-1.48c1.48-0.74,2.25-2.01,3.02-3.26c0.66-1.07,1.2-2.2,1.79-3.31c0.47-0.91,0.98-1.8,1.37-2.74
		C406.18,570.46,406.59,569.24,407.04,568.04z M355.56,603.32c0.54-1.22,0.58-2.31-0.02-3.09c-0.79-1.04-1.88-1.95-3.02-2.71
		c-0.85-0.57-1.96-0.83-2.98-1.18c-0.42-0.14-0.96-0.07-0.74,0.49c0.3,0.78,0.61,1.63,1.2,2.21c1.3,1.27,2.77,2.4,4.2,3.55
		C354.57,602.89,355.04,603.05,355.56,603.32z M361.31,594.08c0.11,0.09,0.23,0.19,0.34,0.28c1.65-1.15,3.25-2.35,4.95-3.43
		c1.64-1.03,3.09-2.19,4-3.82c0.15-0.27,0.22-0.58,0.32-0.88c-0.36,0.01-0.83-0.12-1.07,0.04c-1.5,0.98-3.01,1.97-4.39,3.07
		c-1.07,0.85-1.98,1.87-2.92,2.84C362.01,592.75,361.16,593.18,361.31,594.08z M395.56,579.48c0.11,0.05,0.23,0.11,0.34,0.16
		c0.52-0.7,1.03-1.4,1.57-2.09c0.58-0.74,1.2-1.46,1.79-2.19c0.58-0.71,1.14-1.43,1.71-2.15c0.56-0.71,1.13-1.41,1.68-2.13
		c0.57-0.75,1.11-1.51,1.67-2.27c0.49-0.65,1.17-1.2,1.31-2.02c-1.73,2.13-3.9,3.9-5.57,6.07
		C398.41,575.01,396.92,577.2,395.56,579.48z M326.83,591.63c0.02,0.06,0.04,0.11,0.06,0.17c1.36,0,2.72,0,4.12,0
		c-0.31-1.16-1.29-1.65-2.27-1.21C328.08,590.89,327.47,591.28,326.83,591.63z"/>
	<path class="st0" d="M400.37,544.15c-0.43,1.45-0.23,2.83,0.5,4.17c0.06,0.11,0.17,0.21,0.18,0.32c0.25,1.55,0.56,3.09,0.7,4.64
		c0.05,0.56-0.29,1.17-0.56,1.71c-0.51,1.02-1.26,1.97-1.62,3.03c-0.33,0.99-0.76,1.85-1.53,2.6c-0.49,0.48-0.91,1.02-1.43,1.61
		c-0.35-0.23-0.8-0.36-0.91-0.62c-0.57-1.34-1.49-2.58-1.35-4.12c0.09-0.95,0.14-1.89-0.47-2.78c-0.22-0.33-0.1-0.85-0.14-1.28
		c0.23-0.25,0.52-0.46,0.66-0.74c0.34-0.69,0.56-1.43,0.91-2.12c0.45-0.9,1.27-1.74,1.4-2.66c0.23-1.6,0.67-3.31-0.72-4.77
		c-0.73-0.76-1.53-1.23-2.32-0.97c0.09,0.12,0.24,0.19,0.4,0.22c1.53,0.32,1.86,1.54,2.13,2.62c0.47,1.86-0.45,3.52-1.28,5.17
		c-0.53,1.05-1.34,2.02-1.17,3.27c-0.19,0.2-0.52,0.39-0.54,0.61c-0.09,0.89-0.15,1.79-0.1,2.69c0.02,0.42,0.3,0.83,0.47,1.24
		c0.02,0.06,0.1,0.1,0.11,0.16c0.24,1.35,0.47,2.7,0.71,4.04c-1.33,0.49-1.97,0.21-2.35-0.93c-0.38-1.17-0.83-2.33-1.21-3.5
		c-0.1-0.32-0.05-0.68-0.12-1.01c-0.17-0.82-0.39-1.63-0.54-2.45c-0.07-0.41-0.06-0.85,0-1.26c0.12-0.74,0.3-1.47,0.46-2.21
		c0.99-0.49,1.06-1.47,1.32-2.27c0.24-0.75,0.08-1.6,0.05-2.4c-0.01-0.24-0.14-0.47-0.22-0.7c-0.12,0.01-0.24,0.03-0.36,0.04
		c0,0.27,0.01,0.54,0,0.81c-0.04,0.92-0.02,1.86-0.15,2.77c-0.09,0.6-0.41,1.18-0.63,1.76c-0.85,1.53-1.25,3.15-1.24,4.89
		c-2.33-3.14-2.99-6.71-3.8-10.28c0.11,1.6,0.02,3.23,0.39,4.78c0.33,1.39,1.18,2.68,1.79,4.02c0.13,0.28,0.21,0.59,0.34,0.87
		c0.43,0.94,0.88,1.87,1.33,2.81c0.04,0.08,0.13,0.17,0.11,0.25c-0.23,1.37,0.99,2.13,1.57,3.17c0.11,0.2,0.05,0.49,0.07,0.74
		c-0.09,0.01-0.17,0.03-0.26,0.04c-0.62-0.77-1.09-1.71-1.88-2.29c-1.64-1.2-2.66-2.81-3.81-4.32c-0.9-1.17-1.39-2.6-2.09-3.96
		c-0.02,0.14-0.08,0.31-0.06,0.48c0.22,1.63,1.29,2.91,2.2,4.25c0.95,1.4,1.88,2.81,2.94,4.14c0.5,0.63,1.29,1.06,1.89,1.63
		c0.24,0.23,0.34,0.58,0.51,0.88c-0.41-0.05-0.87,0-1.22-0.15c-1.52-0.67-2.33-2.05-3.56-3.02c-0.78-0.62-1.51-1.3-2.23-1.99
		c-0.44-0.42-0.87-0.87-1.18-1.36c-1.28-2.03-2.61-4.04-3.73-6.14c-0.75-1.42-1.37-2.88-2.38-4.19c-1.26-1.65-0.42-5.05,1.44-6.14
		c1.44-0.84,2.91-0.76,4.26,0.15c0.93,0.63,1.89,0.54,2.83,0.21c2.54-0.88,3.05-0.77,4.77,1.12c0.2,0.22,0.57,0.33,0.86,0.49
		c0.04-0.06,0.08-0.12,0.12-0.18c-0.44-0.52-0.85-1.06-1.31-1.56c-0.76-0.83-0.51-1.75,0.66-1.95c1.02-0.17,2.1-0.29,3.02,0.47
		c0.17,0.14,0.77,0.03,1.04-0.14c0.55-0.34,1-0.8,1.52-1.19c0.67-0.5,1.35-0.44,2.08-0.06c0.8,0.42,1.5,1.16,2.57,0.88
		c0.28-0.07,0.49-0.38,0.74-0.59c0,0-0.02,0.02-0.02,0.02c1.08,0,2.15,0,3.23,0c0.3,0.4,0.61,0.8,0.91,1.19
		c-0.2,0.96,1.08,1.88-0.06,2.87c0.91,0.31,1.24-0.14,1.64-0.63c0.4-0.51,0.93-0.93,1.39-1.4c0.75-0.78,1.27,0.17,1.9,0.2
		c0.03,0,0.07,0,0.1,0.01c0,0-0.03-0.02-0.03-0.02c0.44,1.68,1.98,1.81,3.19,1.17c0.38-0.2,0.72-0.47,1.07-0.72
		c1.15-0.79,2.06-0.49,2.87,0.59c1.35,1.79,0.69,3.71,0.6,5.56c-0.04,0.88-0.75,1.74-1.12,2.61c-0.37,0.86-0.77,1.72-1.04,2.6
		c-0.48,1.58-1.54,2.8-2.74,3.95c-1.66,1.6-3.55,2.95-5.61,4.1c-0.72,0.4-1.53,0.66-2.3,0.98c-1.17,0.47-2.32,0.97-3.51,1.38
		c-0.6,0.2-1.26,0.23-1.9,0.34c-0.05-0.11-0.1-0.23-0.15-0.34c0.58-0.39,1.13-0.83,1.74-1.17c1.55-0.88,3.16-1.68,4.69-2.59
		c1.18-0.7,2.27-1.51,3.4-2.27c0.13-0.09,0.29-0.16,0.46-0.2c2.18-0.44,3.22-1.99,4.28-3.53c0.32-0.46,0.57-0.99,0.99-1.36
		c1.16-1.01,0.26-2.14,0.46-3.2c-0.09-0.02-0.18-0.04-0.27-0.05c-0.07,0.2-0.16,0.4-0.22,0.61c-0.39,1.24-0.61,2.55-1.22,3.7
		c-0.51,0.96-1.43,1.74-2.61,2.19c-0.39,0.15-0.86,0.37-1.04,0.68c-0.64,1.08-1.81,1.11-2.81,1.47c-0.09-0.08-0.19-0.16-0.28-0.24
		c0.45-0.61,0.78-1.35,1.37-1.8c0.96-0.72,1.35-1.58,1.78-2.63c0.68-1.63,0.52-3.23,0.49-4.84c-0.02-1.28-0.38-2.56-0.61-3.93
		c-0.73,0.35-0.83,0.77-0.59,1.29c0.92,2.02,0.82,4.15,0.55,6.24c-0.11,0.84-0.94,1.59-1.36,2.41c-1.15,2.25-3.32,3.71-5.15,5.43
		c-0.2,0.19-0.56,0.25-0.84,0.38c-0.06-0.05-0.13-0.11-0.19-0.16c0.34-0.7,0.67-1.39,1.01-2.09c0.21-0.14,0.49-0.24,0.6-0.42
		c0.28-0.48,0.5-1,0.72-1.52c0.16-0.37,0.36-0.74,0.45-1.13c0.23-0.98,0.41-1.98,0.61-2.97c0.06-0.33,0.09-0.68,0.14-1.01
		c0.3-1.85-0.74-3.29-1.92-4.97c0.14,0.72,0.23,1.21,0.32,1.69c0.27,1.36,0.61,2.72,0.79,4.09c0.06,0.51-0.16,1.11-0.42,1.59
		c-0.47,0.84-1.34,3.74-1.27,4.67c-0.23,0.17-0.55,0.3-0.67,0.52c-0.33,0.63-0.8,1.03-1.84,1.17c0.18-0.48,0.29-0.83,0.43-1.17
		c0.13-0.31,0.28-0.62,0.43-0.92c0.37-0.77,0.51-1.52,0.27-2.38c-0.12-0.44,0.31-0.98,0.33-1.47c0.02-0.74,0-1.51-0.21-2.21
		c-0.34-1.13-0.89-2.21-1.26-3.33c-0.27-0.81-0.4-1.67-0.6-2.5c0.15-0.11,0.4-0.19,0.45-0.32c0.31-0.96,1.02-1.39,2.1-1.43
		c0.27-0.01,0.53-0.19,0.79-0.29C401.45,541.83,400.37,542.55,400.37,544.15z M379.77,543.84c-0.11,0.03-0.22,0.07-0.33,0.1
		c0.35,2.65,2.05,4.85,3.33,7.2c-0.18-0.87-0.44-1.73-0.83-2.54c-0.53-1.11-1.18-2.18-1.73-3.28
		C380,544.86,379.91,544.33,379.77,543.84z M416.01,543.03c-1.6,1.6-0.81,2.99-0.13,4.38C416.05,546.03,416.53,544.66,416.01,543.03
		z"/>
	<path class="st0" d="M305.03,554.07c-1.27-1.51-2.45-2.84-3.53-4.23c-0.44-0.57-0.72-1.26-0.97-1.92c-0.67-1.8,0.28-3.26,1.69-4.25
		c2.41-1.69,5.21-2.71,8.36-2.37c0.98,0.11,1.92,0.56,2.85,0.92c0.77,0.3,1.49,0.69,2.41,1.12c-0.07-0.82-0.06-1.58-0.21-2.32
		c-0.38-1.96-0.34-3.93,0.25-5.82c0.46-1.45,1.43-2.76,2.99-3.53c0.9-0.45,1.82-0.96,2.8-1.19c1.87-0.45,3.34,0.31,4.53,1.59
		c0.26,0.28,0.42,0.68,0.74,0.85c0.4,0.21,0.92,0.33,1.39,0.33c0.71,0.01,1.43-0.18,2.14-0.16c1.41,0.03,2.27,0.83,2.35,2.08
		c0.02,0.28,0.04,0.56,0.02,0.84c-0.03,0.53,0.25,0.68,0.81,0.71c2.05,0.1,3.97,1.63,4.14,3.38c0.11,1.11-0.73,1.83-1.6,2.49
		c-1.92,1.47-3.95,2.85-5.72,4.45c-1.94,1.76-2.84,4.02-2.8,6.53c0.03,1.86,0.1,3.72,0.13,5.58c0,0.29-0.09,0.58-0.14,0.87
		c-0.32-0.09-0.65-0.17-0.96-0.29c-0.5-0.19-1-0.4-1.47-0.64c-2.86-1.46-5.93-1.75-9.05-1.09c-2.17,0.46-4.23,1.34-6.36,1.96
		c-1.7,0.49-3.27,0.02-4.63-0.92c-0.69-0.48-1.4-0.99-1.55-1.93C303.45,555.84,303.66,554.78,305.03,554.07z M324.09,553.19
		c0.1,0,0.2-0.01,0.31-0.01c-0.06-0.72-0.08-1.43-0.19-2.14c-0.1-0.69-0.44-1.39-0.41-2.07c0.06-1.12,0.4-2.23,0.49-3.36
		c0.1-1.31,0.41-2.52,0.97-3.75c0.93-2.06,2.07-3.95,3.76-5.58c0.66-0.64,1.25-1.34,1.9-2.04c-1.37-0.33-2.07-0.25-2.7,0.42
		c-1.2,1.27-2.42,2.54-3.5,3.89c-0.64,0.8-1.26,1.7-1.53,2.65c-0.54,1.9-0.8,3.85-0.53,5.85C322.93,549.14,323,551.26,324.09,553.19
		z M321.54,549.52c0.11-0.01,0.21-0.01,0.32-0.02c0.02-0.36,0.1-0.73,0.04-1.09c-0.13-0.82-0.45-1.63-0.46-2.45
		c-0.04-2.87,0.68-5.59,2.5-7.98c0.78-1.02,1.79-1.89,2.63-2.87c0.31-0.36,0.67-0.8-0.07-1.24c-0.45-0.27-0.68-0.81-1.11-1.14
		c-0.21-0.16-0.8-0.25-0.91-0.13c-0.6,0.61-1.18,1.26-1.61,1.98c-0.43,0.72-0.67,1.52-0.98,2.3c-0.71,1.8-1.31,3.61-1.23,5.56
		c0.04,0.93,0.14,1.88-0.02,2.79C320.39,546.8,321.51,548.04,321.54,549.52z M316.9,549.35c0.08-0.12,0.16-0.25,0.24-0.37
		c-1.45-0.86-2.84-1.84-4.38-2.56c-2.21-1.03-4.5-1.93-6.81-2.77c-0.6-0.22-1.57-0.26-2.06,0.03c-0.93,0.56-1.65,1.42-2.45,2.15
		c0.03,0.11,0.07,0.22,0.1,0.34C306.94,546.18,311.9,547.83,316.9,549.35z M319.71,546.76c0.05,0.01,0.11,0.02,0.16,0.03
		c-0.06-0.8-0.11-1.6-0.18-2.4c-0.24-2.7,0.3-5.34,1.06-7.9c0.43-1.45,1.57-2.73,2.37-4.09c0.16-0.27,0.22-0.59,0.33-0.89
		c-0.39-0.06-0.79-0.22-1.15-0.15c-0.67,0.11-1.31,0.34-1.95,0.55c-0.21,0.07-0.46,0.19-0.58,0.35c-0.81,1.11-1.54,2.24-1.51,3.64
		c0.04,1.64,0.03,3.29,0.06,4.93c0.01,0.34,0.06,0.68,0.14,1.01C318.87,543.49,319.29,545.13,319.71,546.76z M336.21,539.06
		c-0.96,0.6-1.96,1.16-2.88,1.81c-1.95,1.39-3.54,3.05-4.71,5.04c-0.82,1.4-1.77,2.75-1.83,4.41c-0.01,0.14-0.12,0.28-0.18,0.42
		c-0.65,1.36-0.43,2.73-0.04,4.11c0.17-0.56,0.23-1.13,0.22-1.7c-0.09-3.17,1.5-5.62,4.03-7.66c1.69-1.37,3.43-2.69,5.13-4.04
		C337,540.62,337.04,540.22,336.21,539.06z M331.92,535.32c-3.37,1.37-8.44,9.09-6.62,15.08c0.11-1.01,0.04-2.11,0.39-3.09
		c0.6-1.67,1.36-3.32,2.25-4.88c0.7-1.22,1.47-2.57,2.64-3.35C332.15,538.02,332.06,536.81,331.92,535.32z M316.27,550.43
		c0-0.08,0-0.15,0-0.23c-1.08-0.34-2.14-0.73-3.24-1c-2.29-0.55-4.59-1.03-6.89-1.54c-0.17-0.04-0.32-0.12-0.49-0.14
		c-1.36-0.18-2.73-0.34-4.06-0.51c-0.45,1.14,0.5,1.58,0.83,2.22c0.27,0.54,0.8,0.66,1.51,0.56c1.41-0.2,2.85-0.37,4.27-0.35
		c1.39,0.02,2.78,0.26,4.16,0.45c0.96,0.13,1.91,0.37,2.87,0.52C315.57,550.48,315.92,550.43,316.27,550.43z M318.72,554.73
		c-0.01-0.12-0.02-0.24-0.02-0.35c-0.31-0.03-0.61-0.09-0.92-0.1c-2.98-0.08-5.97-0.23-8.85,0.71c-1.16,0.38-2.36,0.66-3.49,1.1
		c-1.08,0.42-1.2,0.93-0.29,1.52c0.35,0.23,1.14,0.07,1.65-0.11c1.43-0.51,2.77-1.28,4.24-1.64c1.7-0.42,3.51-0.52,5.27-0.76
		C317.11,554.98,317.91,554.85,318.72,554.73z M306.84,558.57c1.55,0.46,3.34,0.32,4.83-0.24c0.6-0.22,1.23-0.38,1.85-0.55
		c1.12-0.3,2.27-0.54,3.37-0.88c1.73-0.53,3.42-0.69,5.13,0.07c0.28,0.13,0.67,0.06,1.01,0.08c0.02-0.12,0.04-0.24,0.06-0.36
		c-0.98-0.28-1.96-0.8-2.95-0.81c-3.57-0.05-7.12,0.26-10.47,1.5C308.77,557.7,307.9,558.12,306.84,558.57z M318.57,547.72
		c-0.69-4.32-1.93-8.57-1.07-13.09c-1.09,1.08-0.99,2.26-1,3.41c-0.01,0.77-0.05,1.56,0.05,2.32c0.16,1.21,0.46,2.4,0.65,3.6
		c0.04,0.29-0.15,0.61-0.23,0.92c-0.4-0.11-0.81-0.21-1.2-0.34c-0.27-0.09-0.53-0.23-0.79-0.35c0.06-0.01,0.13-0.03,0.19-0.04
		C316.3,545.35,317.43,546.54,318.57,547.72z M303.63,550.77c0.78,1.24,1.37,1.71,1.96,1.63c2.44-0.33,4.87-0.68,7.3-1.03
		c0.13-0.02,0.25-0.15,0.37-0.22c-0.01-0.08-0.03-0.16-0.04-0.25C310.1,550.61,306.96,550.67,303.63,550.77z M306.04,554.64
		c2.05-0.42,4.09-0.85,6.13-1.27c0.07-0.01,0.12-0.06,0.19-0.08c1.71-0.48,3.41-0.48,5.14-0.03c0.66,0.17,1.38,0.16,2.08,0.24
		c0.02-0.13,0.04-0.25,0.06-0.38c-1.31-0.25-2.62-0.73-3.92-0.7c-2.91,0.08-5.81,0.4-8.71,0.65
		C305.95,553.16,305.67,553.71,306.04,554.64z M335.06,537.87c-1-0.41-1.7-0.09-2.32,0.55c-0.21,0.22-0.5,0.37-0.72,0.59
		c-0.57,0.55-1.17,1.09-1.67,1.69c-0.79,0.95-1.53,1.94-2.23,2.95c-0.19,0.27-0.13,0.68-0.19,1.03c0.1,0.03,0.21,0.07,0.31,0.1
		c1.66-2.6,3.87-4.67,6.9-6.11C335.12,538.44,335.09,538.14,335.06,537.87z M316.21,546.99c-0.12-0.17-0.21-0.38-0.38-0.49
		c-1.54-1.04-2.86-2.31-4.56-3.21c-1.47-0.79-2.83-0.91-4.44-0.47C310,544.11,313.27,545.23,316.21,546.99z"/>
	<path class="st0" d="M369.93,532.38c-1.3-1.22-2.67-2.32-3.77-3.6c-1.01-1.18-1.9-2.49-2.13-4.06c-0.18-1.25-0.43-2.49-0.62-3.74
		c-0.07-0.47-0.17-0.86-0.83-0.85c-1.07,0.02-0.92-0.78-0.99-1.33c-0.08-0.59-0.2-1.29,0.59-1.62c0.68-0.28,1.38-0.34,2.02,0.15
		c0.27,0.2,0.58,0.37,0.95,0.61c0.35-0.79,0.67-1.48,1.86-1.31c-0.37-0.51-0.6-0.87-0.87-1.21c-0.65-0.82-0.35-1.6,0.34-2.16
		c0.4-0.32,1.17-0.45,1.73-0.39c1.05,0.12,1.58,1.55,0.97,2.34c-0.49,0.64-0.41,1.57,0.06,2.23c1,1.41,1.96,2.85,2.91,4.29
		c1.17,1.78,1.67,3.72,1.78,5.78c0.03,0.63,0.35,1.24,0.58,1.85c0.05,0.13,0.29,0.2,0.44,0.3c0.14-0.19,0.41-0.38,0.41-0.58
		c0.02-1.27,0.02-2.54-0.05-3.81c-0.08-1.52-0.68-2.92-1.41-4.29c-0.4-0.74-0.76-1.51-0.98-2.31c-0.22-0.79-0.71-0.89-1.48-0.87
		c-1.14,0.02-2.26-1.62-1.72-2.43c0.82-1.25,1.8-1.44,3.18-0.6c0.39-0.99,0.73-2.02,2.16-2.13c1.01-0.08,1.81,0.27,2.28,1.09
		c0.47,0.82,0.34,1.61-0.29,2.36c2.08,2.35,2.63,5.08,2.18,7.96c-0.29,1.84-0.89,3.64-1.37,5.55c0.2,0.14,0.49,0.46,0.84,0.55
		c0.33,0.08,0.97,0.03,1.08-0.16c0.9-1.46,2.02-2.89,2.45-4.47c0.46-1.68,0.28-3.51,0.28-5.27c0-1.45-0.65-2.72-1.38-4.03
		c-0.82-1.46-1.73-2.62-3.42-3.26c-0.86-0.33-1.19-1.59-0.76-2.47c0.44-0.91,1.43-1.37,2.41-1.1c1.12,0.3,1.78,1.94,1.12,2.85
		c-0.38,0.53-0.37,0.86,0.09,1.45c1.63,2.06,3.07,4.23,2.93,6.91c-0.08,1.58,0.03,3.19-0.3,4.72c-0.27,1.25-1.03,2.42-1.63,3.6
		c-0.45,0.88-1,1.72-1.51,2.57c-0.11,0.18-0.28,0.33-0.42,0.5c-0.93,1.05-1.75,2.16-2.07,3.51c-0.05,0.21-0.15,0.41-0.27,0.59
		c-1.31,1.93-1.31,1.92-3.49,0.74c-1.27-0.69-2.79-1.16-3.76-2.1c-1.74-1.69-4.16-2.65-5.71-4.47c-0.77-0.91-1.43-1.93-1.91-2.99
		c-0.73-1.6-1.19-3.29-1.9-4.9c-0.19-0.44-0.77-0.83-1.27-1.07c-1.3-0.61-1.54-2.11-0.32-2.85c0.37-0.22,1.13-0.38,1.36-0.2
		c0.45,0.36,1.36,0.67,1.03,1.42c-0.66,1.49,0.04,2.92,0.57,4.12c0.98,2.22,1.72,4.65,3.74,6.39c0.87,0.75,1.84,1.42,2.82,2.05
		C368.92,532.53,369.53,532.82,369.93,532.38z M368.19,517.55c-0.2,0.81-0.36,1.36-0.48,1.92c-0.08,0.35-0.18,0.71-0.15,1.05
		c0.02,0.29,0.3,0.57,0.33,0.86c0.15,1.76,0.8,3.39,1.74,4.91c0.76,1.23,1.63,2.41,2.5,3.58c0.15,0.2,0.52,0.26,0.79,0.38
		c0.14-0.32,0.43-0.65,0.4-0.95c-0.16-1.38-0.41-2.76-0.64-4.13c-0.03-0.21-0.09-0.42-0.19-0.6c-0.68-1.25-1.35-2.51-2.09-3.74
		C369.72,519.73,368.96,518.69,368.19,517.55z M376.34,529.47c0.08,0.01,0.16,0.01,0.24,0.02c0.09-0.14,0.21-0.28,0.26-0.44
		c0.31-1.03,0.63-2.05,0.91-3.09c0.69-2.53,0.93-5.05-0.22-7.55c-0.45-0.98-1.16-1.5-2.32-1.62c-0.57-0.06-1.11-0.33-1.78-0.55
		c-0.29,0.25-0.45,0.58-0.07,1.19c1.17,1.83,2.03,3.81,2.51,5.85c0.39,1.64,0.27,3.38,0.38,5.07
		C376.27,528.73,376.31,529.1,376.34,529.47z M364.96,518.71c-0.25,0.91-0.75,1.75-0.65,2.53c0.19,1.44,0.76,2.83,1.12,4.26
		c0.53,2.07,2.04,3.53,3.69,4.9c0.41,0.34,0.94,0.58,1.46,0.78c0.18,0.07,0.54-0.06,0.69-0.2c0.1-0.1,0.05-0.43-0.06-0.59
		c-0.9-1.36-1.92-2.65-2.72-4.05c-0.58-1.02-0.93-2.16-1.3-3.27c-0.3-0.9-0.48-1.84-0.73-2.76c-0.03-0.11-0.15-0.2-0.23-0.29
		C365.88,519.65,365.53,519.3,364.96,518.71z"/>
	<path class="st0" d="M405.09,538.82c-0.3-0.4-0.61-0.8-0.91-1.19c-0.65-0.79-2.42-0.79-3.23,0l0.02-0.02
		c-0.53,0.03-1.06,0.07-1.55,0.1c-0.47-1.16,0.46-1.74,1.12-2.14c0.42-0.26,1.35,0.03,1.99,0.23c0.63,0.19,1.16,0.7,1.8,0.84
		c0.58,0.13,1.35,0.12,1.85-0.13c1.83-0.93,1.86-1.03,3.34,0.19c0.84,0.69,1.69,0.99,2.77,0.85c0.89-0.11,1.61,0.2,2.17,0.76
		c0.15,0.14,0.16,0.65,0.03,0.73c-0.71,0.46-1.46,0.88-2.24,1.23c-0.25,0.11-0.65,0-0.96-0.06c-0.43-0.09-0.84-0.23-1.25-0.35
		l0.03,0.02c-0.1-0.55-0.43-0.9-1.08-0.9c-0.58,0-1.24-0.18-1.51,0.57c-0.08,0.21-0.34,0.38-0.55,0.53
		c-0.73,0.52-0.88,0.44-1.15-0.35C405.67,539.38,405.33,539.11,405.09,538.82z"/>
	<path class="st0" d="M380.71,538.69c0.28-1.05,1.12-1.62,2.21-1.86c0.65-0.14,1.37-0.15,2.04-0.11c1.25,0.07,2.34-0.28,3.39-0.86
		c0.8-0.43,1.57-0.54,2.45,0.05c0.76,0.51,1.66,1,2.74,0.44c0.61-0.32,1.2-0.23,1.67,0.8c-0.46,0.33-1.06,0.75-1.69,1.2
		c-1.2-1.03-2.59-0.71-3.9-0.56c-0.46,0.05-0.93,0.54-1.26,0.93c-0.47,0.54-0.96,0.93-1.77,0.91c-0.41-0.01-0.85,0-1.22,0.13
		C383.54,540.41,382.05,539.95,380.71,538.69z"/>
	<path class="st0" d="M326.33,572.57c-0.13,0.19-0.22,0.46-0.41,0.55c-0.14,0.07-0.48-0.04-0.62-0.17c-1.51-1.4-3.14-2.73-4.44-4.28
		c-0.81-0.96-1.13-2.26-1.64-3.42c-0.06-0.13,0-0.42,0.11-0.48c0.18-0.09,0.52-0.15,0.66-0.06c1.03,0.69,2.12,1.33,3,2.16
		c0.79,0.74,1.44,1.65,1.97,2.57C325.52,570.41,325.86,571.47,326.33,572.57z"/>
	<path class="st0" d="M313.27,570.16c-1.83-0.75-3.31-1.8-4.5-3.14c-0.31-0.35-0.39-0.92-0.44-1.4c-0.02-0.16,0.43-0.53,0.61-0.5
		C310.76,565.38,314.1,567.79,313.27,570.16z"/>
	<path class="st0" d="M296.02,576.13c0.67-0.11,1.34-0.26,2.01-0.31c1.61-0.13,2.9,0.76,4.33,1.2c0.22,0.07,0.41,0.56,0.38,0.84
		c-0.02,0.19-0.44,0.45-0.71,0.48c-1.8,0.22-3.56,0.19-5.06-0.93c-0.36-0.27-0.63-0.62-0.95-0.93
		C296.02,576.37,296.02,576.25,296.02,576.13z"/>
	<path class="st0" d="M365.04,514.52c0.06,1.04-1.13,2.02-2.01,1.93c-0.94-0.09-1.79-1.02-1.75-2.07c0.04-1.06,0.77-1.72,1.9-1.72
		C364.36,512.65,365.06,513.35,365.04,514.52z"/>
	<path class="st0" d="M369.67,510.59c0.01,0.96-0.75,1.71-1.77,1.74c-1.08,0.03-1.75-0.62-1.77-1.73c-0.02-0.77,0.95-1.82,1.67-1.8
		C368.69,508.82,369.66,509.75,369.67,510.59z"/>
	<path class="st0" d="M370.26,511.43c0.02-1,0.59-1.55,1.61-1.53c0.9,0.01,1.67,0.78,1.65,1.64c-0.02,0.88-0.72,1.49-1.7,1.49
		C370.65,513.04,370.24,512.61,370.26,511.43z"/>
	<path class="st0" d="M385.82,580.14c0,0.47,0.04,0.61-0.01,0.71c-0.65,1.31-1.29,2.62-1.97,3.92c-0.42,0.81-0.91,1.6-1.36,2.4
		c-0.69,1.23-1.38,2.47-2.07,3.71c-0.6,1.09-1.24,2.16-1.78,3.28c-0.98,2.03-2.11,4.02-3.87,5.56c-1.88,1.64-4.16,2.7-6.74,3.37
		c-3.29,0.86-6.58,0.53-9.88,0.64c-0.05-0.08-0.11-0.15-0.16-0.23c0.45-0.41,0.84-0.89,1.36-1.21c1.28-0.78,2.66-1.43,3.93-2.23
		c1.15-0.73,2.26-1.53,3.26-2.42c1.25-1.1,2.44-2.27,3.52-3.5c1.02-1.16,1.81-2.49,2.81-3.67c1.58-1.87,3.04-3.87,4.94-5.44
		c1.93-1.6,4.32-2.74,6.52-4.08C384.74,580.71,385.18,580.49,385.82,580.14z"/>
	<path class="st0" d="M336.53,554.29c1.45,0.66,2.7,1.12,3.83,1.76c2.57,1.47,4.87,3.24,6.97,5.25c1.59,1.52,3.3,2.94,4.99,4.37
		c1.28,1.08,2.63,2.08,3.91,3.15c1.5,1.26,2.24,2.94,3.05,4.59c0.34,0.69,0.69,1.38,1.02,2.08c0.13,0.28,0.24,0.57,0.32,0.86
		c0.2,0.69,0.4,1.38,0.56,2.07c0.07,0.32,0.05,0.66,0.06,0.9c-1.79-0.93-3.52-1.73-5.15-2.69c-1.73-1.02-3.43-2.1-5.01-3.3
		c-1.6-1.21-3.15-2.52-4.52-3.94c-1.31-1.35-2.4-2.88-3.5-4.38c-0.68-0.94-1.17-2-1.77-2.98c-0.89-1.46-1.79-2.91-2.73-4.34
		c-0.58-0.88-1.26-1.71-1.87-2.57C336.59,554.98,336.62,554.77,336.53,554.29z"/>
	<path class="st0" d="M358.08,596.52c-1.31-0.12-1.47-1.22-2.18-1.78c-1.13-0.88-2.17-1.87-3.25-2.81
		c-0.48-0.42-0.98-0.82-1.46-1.24c-1.98-1.75-4.01-3.44-5.6-5.51c-0.84-1.1-1.43-2.3-1.95-3.57c-0.79-1.95-1.19-3.95-1.57-5.97
		c-0.43-2.27-1.01-4.52-1.54-6.78c-0.12-0.51-0.35-1.01-0.53-1.51c0.12-0.08,0.24-0.15,0.37-0.23c0.31,0.29,0.66,0.55,0.94,0.86
		c0.44,0.5,0.79,1.07,1.26,1.54c1.54,1.55,2.71,3.31,3.79,5.13c0.59,1.01,1.26,1.98,1.97,2.92c1.63,2.17,3.41,4.25,4.93,6.47
		c1.13,1.65,2,3.46,2.85,5.24c0.75,1.57,1.4,3.19,1.93,4.83C358.27,594.83,358.08,595.64,358.08,596.52z"/>
	<path class="st0" d="M378.65,558.94c-0.29,0.8-0.63,1.59-0.87,2.41c-0.38,1.34-0.68,2.69-1.03,4.03c-0.54,2.03-0.94,4.1-1.72,6.05
		c-0.48,1.21-0.87,2.49-1.97,3.53c-0.92,0.87-1.33,2.14-2.08,3.18c-0.75,1.04-1.64,1.99-2.44,2.99c-0.44,0.55-0.76,1.2-1.24,1.71
		c-1.04,1.08-2.14,2.12-3.24,3.15c-0.19,0.18-0.53,0.23-0.8,0.35c-0.1-0.05-0.2-0.09-0.3-0.14c0.21-0.54,0.33-1.13,0.66-1.6
		c1.04-1.46,2.06-2.9,2.06-4.72c0-0.18,0.01-0.44,0.13-0.53c1.05-0.78,0.93-1.99,1.18-2.98c0.27-1.1,0.87-1.99,1.38-2.95
		c0.19-0.36,0.37-0.73,0.54-1.09c0.62-1.32,1.2-2.65,1.86-3.95c0.65-1.3,1.34-2.59,2.05-3.87c1.08-1.94,2.34-3.76,4.33-5.07
		c0.39-0.25,0.8-0.48,1.2-0.72C378.43,558.78,378.54,558.86,378.65,558.94z"/>
	<path class="st0" d="M363.64,569.6c-0.05-0.31-0.15-0.52-0.11-0.72c0.2-1.22,0.41-2.44,0.67-3.65c0.21-0.99,0.56-1.96,0.76-2.95
		c0.3-1.51,0.68-3.03,0.72-4.55c0.06-2.2,0.19-4.47-0.34-6.58c-0.58-2.27-0.6-4.48-0.4-6.71c0.15-1.6,0.75-3.17,1.17-4.74
		c0.18-0.67,0.4-1.33,0.6-1.99c0.11-0.02,0.22-0.03,0.33-0.05c0.27,0.57,0.65,1.11,0.79,1.7c1.39,5.59,1.29,11.26,1.05,16.93
		c-0.07,1.64-0.66,3.27-1.06,4.9c-0.07,0.3-0.46,0.54-0.58,0.84c-0.49,1.2-1.02,2.4-1.36,3.64
		C365.49,567.06,365.05,568.41,363.64,569.6z"/>
	<path class="st1" d="M357.39,552.06c-0.93-1.02-1.7-1.79-2.37-2.62c-0.78-0.96-1.65-1.91-2.16-2.98c-1.7-3.54-2.23-7.21-1.28-11.03
		c0.31-1.26,0.36-2.58,0.52-3.87c0.03-0.25,0-0.52,0.11-0.73c0.1-0.18,0.36-0.35,0.58-0.39c0.12-0.02,0.39,0.22,0.45,0.38
		c0.44,1.29,0.82,2.59,1.27,3.87c0.13,0.37,0.42,0.69,0.62,1.04c1.38,2.38,2.12,4.91,2.61,7.58c0.38,2.08,0.47,4.12,0.39,6.19
		C358.1,550.31,357.68,551.11,357.39,552.06z"/>
	<path class="st0" d="M359.19,563.53c-0.97-0.51-1.94-0.94-2.81-1.49c-1.72-1.1-3.5-2.16-5.04-3.44c-1.53-1.26-2.85-2.74-4.18-4.19
		c-1.1-1.2-2.28-2.41-3.06-3.77c-0.69-1.2-1.94-2.26-1.73-3.81c0.03-0.2,0.07-0.41,0.14-0.8c0.43,0.29,0.78,0.45,1.03,0.7
		c1.96,1.95,3.83,3.99,5.89,5.85c1.36,1.23,3.02,2.19,4.5,3.32c1.86,1.41,3.77,2.78,4.65,4.98
		C358.91,561.74,359.45,562.52,359.19,563.53z"/>
	<path class="st0" d="M355.56,603.32c-0.52-0.27-0.99-0.43-1.35-0.71c-1.43-1.15-2.9-2.28-4.2-3.55c-0.6-0.58-0.9-1.44-1.2-2.21
		c-0.22-0.56,0.32-0.64,0.74-0.49c1.02,0.34,2.13,0.61,2.98,1.18c1.13,0.76,2.22,1.67,3.02,2.71
		C356.14,601.01,356.1,602.1,355.56,603.32z"/>
	<path class="st0" d="M361.31,594.08c-0.15-0.9,0.7-1.33,1.24-1.89c0.94-0.97,1.85-1.99,2.92-2.84c1.39-1.11,2.89-2.09,4.39-3.07
		c0.24-0.16,0.7-0.03,1.07-0.04c-0.1,0.29-0.17,0.6-0.32,0.88c-0.91,1.63-2.36,2.79-4,3.82c-1.7,1.07-3.31,2.28-4.95,3.43
		C361.54,594.27,361.43,594.18,361.31,594.08z"/>
	<path class="st0" d="M460.73,529.02c0.03,0.26,0.11,0.52,0.09,0.78c-0.14,2.35-0.17,4.72-0.49,7.05c-0.29,2.07-0.77,4.13-1.42,6.13
		c-0.58,1.79-1.35,3.57-2.3,5.23c-0.91,1.57-2.14,3-3.27,4.46c-0.46,0.59-1.04,1.1-1.59,1.62c-0.12,0.11-0.35,0.13-0.71,0.26
		c0-0.41-0.07-0.72,0.01-0.99c0.37-1.24,0.78-2.46,1.16-3.69c0.09-0.29,0.12-0.6,0.19-0.9c0.24-0.93,0.49-1.86,0.73-2.78
		c0.09-0.36,0.23-0.72,0.26-1.09c0.12-1.46,0.63-2.8,1.28-4.13c0.54-1.11,0.82-2.33,1.25-3.49c0.15-0.4,0.39-0.77,0.59-1.15
		c0.99-1.88,1.56-3.94,2.98-5.64c0.42-0.5,0.61-1.15,0.91-1.74C460.5,528.97,460.62,529,460.73,529.02z"/>
	<path class="st0" d="M467.67,579.3c-1.34,0.91-2.6,1.78-3.88,2.63c-1.35,0.9-2.7,1.81-4.09,2.67c-0.98,0.6-2.02,1.11-3.05,1.64
		c-1.06,0.55-2.17,1.03-3.2,1.62c-2.4,1.37-5.02,1.48-7.71,1.15c-0.97-0.12-1.93-0.38-2.86-0.66c-0.33-0.1-0.55-0.48-0.82-0.73
		c0.26-0.19,0.49-0.44,0.79-0.56c1.69-0.69,3.38-1.36,5.09-2c0.84-0.32,1.71-0.59,2.58-0.83c2.12-0.6,4.26-1.13,6.35-1.78
		c1.53-0.48,3-1.11,4.5-1.65c1.11-0.4,2.23-0.75,3.35-1.14c0.34-0.12,0.66-0.3,1-0.42C466.31,579.03,466.91,578.72,467.67,579.3z"/>
	<path class="st0" d="M440.16,551.36c0.37,0.45,0.84,0.85,1.09,1.35c0.77,1.53,1.46,3.08,2.15,4.64c0.2,0.46,0.31,0.95,0.43,1.43
		c0.6,2.55,1.2,5.09,1.76,7.64c0.28,1.27,0.44,2.57,0.69,3.84c0.11,0.54,0.31,1.06,0.45,1.59c0.07,0.27,0.15,0.55,0.13,0.82
		c-0.03,0.45-0.33,0.56-0.67,0.24c-1.67-1.55-3.31-3.1-4.23-5.17c-0.89-2.01-1.48-4.05-1.7-6.21c-0.19-1.83-0.73-3.63-1.04-5.45
		c-0.12-0.69-0.1-1.42,0-2.11c0.13-0.86,0.42-1.7,0.64-2.56C439.97,551.4,440.07,551.38,440.16,551.36z"/>
	<path class="st0" d="M472.18,545.81c-0.19,0.72-0.23,1.52-0.59,2.16c-1.05,1.84-2.32,3.57-3.35,5.41
		c-1.36,2.44-3.33,4.46-5.33,6.45c-1.22,1.21-2.68,2.27-4.17,3.23c-1.85,1.19-3.83,2.22-5.75,3.31c-0.1,0.06-0.25,0.05-0.59-0.1
		c0.44-0.53,0.85-1.08,1.33-1.59c2.06-2.18,4.15-4.34,6.21-6.51c2.24-2.36,4.49-4.72,6.7-7.1c0.67-0.72,1.21-1.54,1.86-2.28
		c0.85-0.95,1.74-1.86,2.65-2.76c0.17-0.17,0.46-0.24,0.7-0.36C471.96,545.72,472.07,545.77,472.18,545.81z"/>
	<path class="st0" d="M449.71,544.76c-0.66-1.08-1.28-2.03-1.84-3.02c-0.55-0.97-1.18-1.93-1.53-2.97c-0.5-1.46-1.05-2.97-1.09-4.48
		c-0.08-2.59,0.15-5.19,0.36-7.79c0.08-0.92,0.48-1.81,0.73-2.72c0.13,0,0.27-0.01,0.4-0.01c0.29,0.93,0.77,1.85,0.83,2.8
		c0.11,1.68,0.79,3.15,1.65,4.59c0.82,1.36,0.82,2.9,1.15,4.38c0.64,2.83-0.13,5.6-0.26,8.4c-0.01,0.15-0.07,0.3-0.13,0.45
		C449.95,544.47,449.88,544.54,449.71,544.76z"/>
	<path class="st0" d="M451.42,565.05c2.22-8.11,8.14-13.32,16.08-17.02c-0.24,0.41-0.41,0.87-0.72,1.23
		c-1.58,1.81-3.16,3.61-4.8,5.37c-1.07,1.16-2.26,2.22-3.36,3.36c-0.91,0.94-1.75,1.92-2.64,2.87c-0.94,1.01-1.91,2.01-2.86,3.01
		c-0.2,0.21-0.49,0.39-0.58,0.64C452.31,565.1,451.87,565.1,451.42,565.05z"/>
	<path class="st0" d="M465.59,566.93c-2.03,1.64-3.82,3.15-5.69,4.57c-1.48,1.12-3.06,2.15-4.62,3.19
		c-0.99,0.66-1.94,1.44-3.05,1.83c-1.45,0.5-3.03,0.66-4.57,0.92c-0.16,0.03-0.4-0.16-0.53-0.31c-0.04-0.05,0.12-0.32,0.26-0.41
		c1.48-0.97,2.97-1.94,4.48-2.89c1.39-0.88,2.79-1.74,4.21-2.58c0.96-0.57,1.96-1.09,2.94-1.63c1.12-0.61,2.22-1.24,3.36-1.82
		c0.78-0.4,1.59-0.75,2.4-1.08C464.9,566.67,465.13,566.81,465.59,566.93z"/>
	<path class="st0" d="M443.52,594.08c1.37,0,2.74-0.02,4.11,0.02c0.27,0.01,0.54,0.26,0.81,0.4c-0.21,0.16-0.39,0.39-0.64,0.48
		c-2.5,0.93-4.96,2.01-7.54,2.7c-2.25,0.6-4.63,0.51-6.78-0.59c-0.25-0.12-0.46-0.49-0.46-0.75c0-0.2,0.31-0.5,0.56-0.57
		c1.14-0.34,2.29-0.71,3.47-0.91c2.13-0.36,4.29-0.61,6.43-0.91C443.5,593.99,443.51,594.04,443.52,594.08z"/>
	<path class="st0" d="M442.17,585.77c1.8-1.45,3.96-2.36,6.13-3.26c1.4-0.59,2.78-1.23,4.21-1.76c1.15-0.43,2.36-0.77,3.55-1.11
		c2.19-0.63,4.36-1.38,6.6-1.79c1.52-0.28,3.08-0.83,4.69-0.49c0.03,0.11,0.07,0.22,0.1,0.32c-8.39,2.79-16.78,5.59-25.17,8.38
		C442.24,585.96,442.21,585.86,442.17,585.77z"/>
	<path class="st0" d="M430.58,580.62c0.62,5.18,1.13,10.36-1.56,15.41c-0.2-0.23-0.58-0.47-0.63-0.75
		c-0.29-1.95-0.78-3.92-0.67-5.85c0.11-1.99,0.8-3.96,1.32-5.93c0.27-1.01,0.71-1.99,1.08-2.98
		C430.27,580.55,430.42,580.59,430.58,580.62z"/>
	<path class="st0" d="M438.64,583.48c-0.24-0.84-0.48-1.68-0.72-2.52c-0.34-1.15-0.68-2.29-1.02-3.44
		c-0.04-0.12-0.14-0.22-0.17-0.33c-0.42-1.94-0.81-3.87-1.24-5.81c-0.22-0.99-0.51-1.96-0.7-2.95c-0.06-0.3,0.1-0.64,0.19-1.14
		C438.13,571.06,440.24,580.1,438.64,583.48z"/>
	<path class="st0" d="M440.16,541.64c2.5,1.17,8.71,9.06,8.34,10.94c-1.12-0.73-2.29-1.26-3.12-2.08
		C443.17,548.34,440.33,543.31,440.16,541.64z"/>
</g>
</svg>
