<?xml version="1.0" encoding="utf-8"?>
<!-- Generator: Adobe Illustrator 26.3.1, SVG Export Plug-In . SVG Version: 6.00 Build 0)  -->
<svg version="1.1" id="Layer_1" xmlns="http://www.w3.org/2000/svg" xmlns:xlink="http://www.w3.org/1999/xlink" x="0px" y="0px"
	 viewBox="0 0 124.49 110.12" style="enable-background:new 0 0 124.49 110.12;" xml:space="preserve">
<style type="text/css">
	.st0{fill:#261917;}
	.st1{fill:#E6A047;}
	.st2{fill:#271C19;}
	.st3{fill:#FFE132;}
	.st4{fill:#2C1D15;}
	.st5{fill:#42A94A;}
	.st6{fill:#43A94C;}
	.st7{fill:#3FA94A;}
	.st8{fill:#37AC4B;}
	.st9{fill:#9CD2EA;}
	.st10{fill:#E6F1DC;}
	.st11{fill:#4CAC50;}
	.st12{fill:#F3C694;}
	.st13{fill:#2A1F1E;}
	.st14{fill:#B0D570;}
	.st15{fill:#F4E256;}
	.st16{fill:#A1D2E9;}
	.st17{fill:#FADBE2;}
	.st18{fill:#73BB55;}
	.st19{fill:#7CC064;}
	.st20{fill:#7FC069;}
	.st21{fill:#7EBC65;}
	.st22{fill:#77BA5E;}
	.st23{fill:#70BA4E;}
	.st24{fill:#F5E1A5;}
	.st25{fill:#F1DE95;}
	.st26{fill:#F8D68C;}
	.st27{fill:#F1D98E;}
	.st28{fill:#EDD88D;}
	.st29{fill:#F2D882;}
	.st30{fill:#EED584;}
	.st31{fill:#FBC283;}
	.st32{fill:#17B04C;}
	.st33{fill:#18B04B;}
	.st34{fill:#15B14C;}
	.st35{fill:#18B04C;}
	.st36{fill:#1DB04B;}
	.st37{fill:#E5EADC;}
	.st38{fill:#E0E7D9;}
	.st39{fill:#E4EADD;}
	.st40{fill:#E4E9DC;}
	.st41{fill:#E3E9DC;}
	.st42{fill:#F0EAE5;}
	.st43{fill:#B1CEA1;}
	.st44{fill:#A7C79C;}
	.st45{fill:#C0CEB6;}
	.st46{fill:#EC9F3B;}
	.st47{fill:#FBD4DC;}
	.st48{fill:#F6C29D;}
	.st49{fill:#DDF1F8;}
	.st50{fill:#77BD5A;}
	.st51{fill:#7ABA68;}
	.st52{fill:#FAD1D3;}
	.st53{fill:#352114;}
	.st54{fill:#301D13;}
	.st55{fill:#301D15;}
	.st56{font-family:'MyriadPro-Regular';}
	.st57{font-size:7.346px;}
</style>
<g id="_x31_PjrAV_00000014626239298507921580000014943210109656829572_">
	<g>
		<path class="st0" d="M69.99,34.5c-0.63-0.25-1.19-0.18-1.77,0.2c-0.84,0.55-1.7,1.12-2.63,1.48c-1.24,0.48-1.49,1.29-1.44,2.52
			c0.1,2.27,0.09,4.54,0,6.81c-0.04,1.11,0.28,1.07,1.2,0.83c1.76-0.45,2.92-1.38,3.96-2.92c4.34-6.38,10.45-7.29,17.19-4.49
			c1.49,0.62,0.42,1.49,0.28,2.28c-1.72,3.76-4.67,6.03-8.59,7.15c-3.03,0.87-5.89,0.07-8.72-0.94c-0.32-0.35-0.65-0.67-1.18-0.5
			c-1.24,0.4-2.46,0.82-3.7,1.22c-0.51,0.16-0.42,0.56-0.43,0.92c-0.01,1.09,0.05,2.19-0.02,3.28c-0.06,0.83,0.28,0.96,1.01,0.95
			c4.66-0.03,9.32-0.01,13.99-0.02c1.11,0,2.18,0.09,3.12,0.76c1.85,1.21,1.91,3.14,0.16,5.13c-0.57,0.49-0.85,1.12-0.97,1.85
			c-0.74,4.48-1.5,8.96-2.22,13.45c-0.09,0.54-0.19,1.08-0.34,1.6c-0.17,0.61-0.54,1.09-1.26,0.99c-0.67-0.1-0.82-0.64-0.84-1.23
			c-0.05-1.44,0.34-2.83,0.58-4.23c0.55-3.31,1.04-6.63,1.59-9.94c0.25-1.46,0.2-1.5-1.28-1.5c-9.3,0-18.6,0-27.9-0.01
			c-0.65,0-1.36,0.19-1.92-0.36c-1.75-0.29-1.79-0.25-1.51,1.38c0.14,0.83,0.29,1.66,0.41,2.49c0.07,0.5,0,0.98-0.6,1.08
			c-0.57,0.09-0.84-0.29-0.92-0.81c-0.12-0.71-0.22-1.41-0.34-2.12c-0.19-1.18-0.23-2.3-1.59-3.03c-1.03-0.56-1.3-1.84-0.97-3.04
			c0.33-1.23,1.11-2.07,2.4-2.32c0.53-0.1,1.09-0.12,1.63-0.12c5.02-0.01,10.03-0.04,15.04,0.02c1.04,0.01,1.35-0.31,1.23-1.27
			c-0.05-0.37,0.02-0.76-0.01-1.14c-0.06-0.95,0.44-2.28-0.22-2.78c-1.02-0.76-2.39-1.17-3.77-1.2c-0.25,0.29-0.54,0.53-0.91,0.66
			c-4.18,1.55-8.28,1.78-12.2-0.79c-1.03-0.68-1.8-1.62-2.69-2.45c-0.92-1.11-1.64-2.34-2.37-3.57c-0.56-0.95-0.4-1.5,0.64-1.95
			c6.94-3.04,13.34-1.24,17.35,5.14c0.91,1.45,2.21,1.77,3.56,2.25c0.47,0.17,0.61-0.05,0.61-0.48c0-2.86,0-5.73-0.01-8.59
			c0-0.12-0.02-0.3-0.09-0.35c-1.46-0.94-2.83-2.05-4.59-2.4c-0.06-0.01-0.13,0.09-0.2,0.14c-1.74,0.96-3.61,0.59-5.43,0.48
			c-2.65-0.16-4.92-1.28-6.9-3.04c-2-2.26-3.42-4.85-4.28-7.75c-0.28-0.94,0.09-1.31,0.97-1.46c6.93-1.15,12.65,0.79,15.49,7.85
			c0.92,2.3,2.78,2.94,4.49,4.03c0.47,0.3,0.55-0.04,0.55-0.45c-0.01-1.89-0.01-3.79,0-5.68c0-0.47-0.29-0.77-0.55-1.09
			c-0.96-1.18-1.77-2.46-2.41-3.83c-2.78-5.92-0.61-11.07,3.39-15.28c0.5-0.53,0.99-0.58,1.49,0.01c0.55,0.63,1.12,1.25,1.68,1.87
			c1.43,2.06,2.51,4.25,2.75,6.82c0.12,1.29,0.03,2.55-0.32,3.74c-0.64,2.19-1.62,4.24-3.15,5.99c-0.33,0.38-0.66,0.76-1.19,0.88
			c-0.36,2.3-0.07,4.62-0.16,6.93c-0.02,0.51,0.2,0.57,0.61,0.34c1.32-0.75,2.65-1.48,3.96-2.23c0.4-0.23,0.43-0.69,0.59-1.08
			c1.78-4.53,4.6-7.92,9.67-8.85c2.14-0.39,4.27-0.33,6.41,0.06c0.86,0.16,1.14,0.58,0.89,1.42c-0.21,0.68-0.35,1.38-0.52,2.07
			c-1.24,3.11-2.97,5.78-6.09,7.4c-2.74,1.42-5.63,1.53-8.59,1.39C70.65,35.03,70.31,34.77,69.99,34.5z"/>
		<path class="st1" d="M47.86,59.77c0.33-0.03,0.67-0.07,1-0.07c9.82,0,19.64,0.01,29.46-0.02c1.03,0,1.35,0.15,1.14,1.31
			c-0.82,4.56-1.54,9.13-2.24,13.71c-0.11,0.7-0.69,1.83,0.42,2.05c1.18,0.23,0.97-1.02,1.09-1.73c0.8-4.73,1.61-9.46,2.31-14.21
			c0.15-0.99,0.51-1.63,1.38-2.04c0.41,0.14,0.47,0.51,0.38,0.83c-0.22,0.72-0.15,1.48-0.37,2.19c-0.91,5.58-1.82,11.16-2.73,16.75
			c-0.28,1.74-0.52,3.48-0.85,5.21c-0.23,1.21-0.87,2.1-2.28,2.06c-0.25-0.43,0-0.81,0.13-1.2c0.47-1.36,0.6-2.79,0.79-4.2
			c0.04-0.32,0.05-0.67-0.31-0.98c-0.57,0.45-0.56,1.1-0.65,1.69c-0.68,4.5-0.75,4.56-5.31,4.57c-1.17,0-2.36-0.15-3.46,0.4
			c-0.58,0.02-1.15,0.04-1.73,0.06c-0.91-0.35-1.86-0.43-2.83-0.42c-3.06,0.02-6.12,0.02-9.18,0c-0.61,0-1.28,0.1-1.76-0.45
			c-0.52-0.7-0.73-1.51-0.86-2.34c-0.97-6.14-1.93-12.29-2.9-18.44C48.26,62.93,47.81,61.39,47.86,59.77z"/>
		<path class="st2" d="M52.26,85.28c4.1,0.02,8.21,0.04,12.31,0.05c0.65,0,1.29-0.02,1.45,0.82c-0.18,0.59-0.61,0.71-1.17,0.71
			c-4.34-0.01-8.67,0.02-13.01-0.02c-1.65-0.02-3.01-1.14-3.3-2.78c-0.58-3.23-1.07-6.47-1.58-9.71c-0.08-0.5-0.16-1.07,0.54-1.2
			c0.81-0.15,0.87,0.51,0.95,1.03c0.48,2.95,0.95,5.89,1.41,8.84C50.14,84.75,50.74,85.31,52.26,85.28z"/>
		<path class="st3" d="M90.97,24.72c0.02-1.42,1.26-2.64,2.66-2.61c1.55,0.03,2.76,1.19,2.76,2.65c0,1.53-1.2,2.85-2.6,2.83
			C92.18,27.58,90.96,26.33,90.97,24.72z"/>
		<path class="st4" d="M67.76,86.1c0.15-0.69,0.66-0.77,1.25-0.77c1.47,0.01,2.95,0.02,4.42,0c1.55-0.03,2.21-0.62,2.45-2.15
			c0.18-1.16,0.37-2.32,0.54-3.49c0.08-0.54,0.35-0.9,0.89-0.87c0.61,0.03,0.73,0.54,0.64,1.03c-0.36,2.01-0.34,4.11-1.37,5.98
			c-1.47,1.16-3.19,1.09-4.92,1.05c-0.92-0.02-1.85-0.04-2.77,0C68.28,86.89,67.93,86.65,67.76,86.1z"/>
		<path class="st5" d="M64.33,27.62c2.19-2.44,3.86-5.14,4.25-8.49c0.33-2.83-0.47-5.38-1.82-7.81c-0.2-0.36-0.46-0.7-0.52-1.13
			c2.89,3.02,4.54,7.9,2.67,12.39c-0.76,1.82-1.81,3.47-3.16,4.94C65.23,28.09,64.82,27.88,64.33,27.62z"/>
		<path class="st6" d="M69.49,47.42c1.08-0.15,2.03,0.41,3.05,0.62c5.35,1.1,9.51-0.8,12.83-4.92c0.5-0.62,0.95-1.27,1.43-1.9
			c0.35,0.56-0.08,0.97-0.33,1.36c-4,6.46-9.38,7.84-16.22,5.46C69.91,47.91,69.65,47.74,69.49,47.42z"/>
		<path class="st7" d="M69.99,34.5c4.07,0.59,7.99,0.33,11.39-2.32c1.65-1.29,2.84-2.96,3.78-4.83c0.18-0.37,0.24-0.82,0.62-1.08
			c-1.29,5.1-4.87,8.76-10.16,9.27c-1.47,0.14-2.95,0.15-4.42-0.06C70.61,35.4,70.04,35.26,69.99,34.5z"/>
		<path class="st8" d="M42.86,44.34c1.42,1.1,2.75,2.3,4.42,3.03c3.51,1.53,6.97,1.07,10.43-0.13c0.31-0.11,0.63-0.21,0.94-0.32
			c0.09,0.48,0.11,0.87-0.48,1.12C52.78,50.29,46.68,49.94,42.86,44.34z"/>
		<path class="st9" d="M34.43,29.7c-1.25,0.02-2.06-0.76-2.08-1.99c-0.02-1.17,0.87-2.06,2.04-2.06c0.98,0,2,1,2.02,1.97
			C36.43,28.87,35.66,29.68,34.43,29.7z"/>
		<path class="st10" d="M85.68,9.74c1.25,0.53,1.35,0.53,1.29-0.94c-0.05-1.21,0.96-1.32,1.54-1.42c0.7-0.12,1,0.66,1.03,1.41
			c0.03,0.64-0.26,1.34,0.24,1.93c0.21,0.23,0.23,0.47,0.05,0.73c-0.47,0.05-0.87-0.05-1.3-0.28c-0.76-0.4-1.93,0.45-2.25,1.54
			c-0.1,0.34,0.12,0.78-0.34,0.99c-0.55-0.77-1.3-0.68-2.25-0.52c0.81,0.44,1.64-0.01,2.25,0.52c-0.79,0.59-1.75,0.35-2.62,0.46
			c-0.47,0.06-0.83-0.67-0.66-1.14c0.2-0.56,0.7-0.9,1.42-0.74c0.73,0.17,1.6,0.64,1.92-0.59C86.67,10.92,85.43,10.45,85.68,9.74z"
			/>
		<path class="st11" d="M45.43,31.98c0.63-0.04,0.93,0.5,1.37,0.78c3.04,1.92,6.37,2.22,9.83,1.86c0.37-0.04,0.75-0.06,1.12-0.09
			c0.19,0.39,0.19,0.69-0.3,0.9c-3.19,1.33-9.81-0.45-11.93-3.22C45.48,32.15,45.46,32.06,45.43,31.98z"/>
		<path class="st12" d="M82.43,61.8c-0.27-1.01,0.56-2.01-0.01-3.02c1.28-1.89,1.24-2.98-0.16-4.75c1.22-0.28,2.22,0.03,2.65,1.26
			c0.51,1.45-0.08,2.86-1.39,3.5c-0.47,0.23-0.52,0.55-0.63,0.96C82.74,60.43,82.86,61.18,82.43,61.8z"/>
		<path class="st13" d="M47.89,70.76c0.01,0.49-0.01,0.93-0.56,1.01c-0.57,0.08-0.85-0.25-0.93-0.78c-0.22-1.37-0.44-2.74-0.65-4.11
			c-0.08-0.5,0.01-0.96,0.62-1.03c0.5-0.06,0.78,0.26,0.87,0.72c0.11,0.58,0.2,1.16,0.29,1.74C47.66,69.15,47.78,69.98,47.89,70.76z
			"/>
		<path class="st14" d="M37.25,37.45c-0.1,0.89-0.52,1.37-1.39,1.34c-0.89-0.02-1.45-0.49-1.47-1.37c-0.02-0.92,0.69-1.38,1.47-1.4
			C36.73,36.01,37.14,36.68,37.25,37.45z"/>
		<path class="st15" d="M29.7,35.69c-0.26,0-1.66-1.46-1.6-1.59c0.31-0.64,0.96-0.94,1.47-1.38c0.16-0.13,1.64,1.28,1.51,1.44
			C30.65,34.72,30.14,35.22,29.7,35.69z"/>
		<path class="st16" d="M93.66,34.32c-0.55-0.6-1.32-1.1-1.45-1.73c-0.08-0.36,1.11-0.68,1.45-1.33c0.47,0.46,1.37,0.97,1.32,1.36
			C94.91,33.2,94.17,33.7,93.66,34.32z"/>
		<path class="st17" d="M88.85,29.17c0.68,0.02,1.15,0.34,1.17,1.12c0.03,0.84-0.59,1.11-1.23,1.12c-0.71,0.01-1.2-0.49-1.25-1.17
			C87.49,29.45,88.07,29.18,88.85,29.17z"/>
		<path class="st18" d="M88.93,17.01c0,0.25,0,0.5,0,0.76c-0.01,0.41-0.09,0.78-0.62,0.74c-0.46-0.03-0.49-0.4-0.51-0.74
			c-0.02-0.46-0.02-0.93,0.01-1.39c0.02-0.37,0.05-0.83,0.57-0.82c0.49,0.01,0.58,0.4,0.58,0.81c0,0.21,0,0.42,0,0.63
			C88.94,17.01,88.94,17.01,88.93,17.01z"/>
		<path class="st19" d="M90.52,14.65c0.71,0.43,1.42,0.96,1.74,1.8c0.16,0.43-0.24,0.77-0.66,0.59c-0.77-0.33-1.37-0.95-1.69-1.72
			C89.76,14.97,90.05,14.69,90.52,14.65z"/>
		<path class="st20" d="M89.83,11.45c-0.02-0.24-0.03-0.49-0.05-0.73c0.46-0.42,0.91-0.84,1.37-1.26c0.2-0.19,0.41-0.28,0.67-0.13
			c0.23,0.13,0.38,0.32,0.38,0.6C92.19,10.66,90.6,11.68,89.83,11.45z"/>
		<path class="st21" d="M85.11,17.08c-0.41,0.02-0.64-0.15-0.61-0.58c0.02-0.4,1.42-1.81,1.8-1.79c0.37,0.01,0.49,0.28,0.53,0.58
			C86.88,15.71,85.57,17.06,85.11,17.08z"/>
		<path class="st22" d="M85.68,9.74c0.23,0.28,0.44,0.59,0.7,0.85c0.67,0.65,0.38,0.96-0.37,1.12c-0.37-0.33-0.75-0.64-1.09-0.99
			c-0.28-0.3-0.88-0.55-0.44-1.09C84.86,9.15,85.29,9.54,85.68,9.74z"/>
		<path class="st23" d="M92.18,13.76c-0.5-0.19-1.39,0.25-1.37-0.64c0.01-0.7,0.81-0.56,1.31-0.55c0.53,0.02,1.4-0.2,1.43,0.55
			C93.58,13.96,92.68,13.61,92.18,13.76z"/>
		<path class="st24" d="M35.24,49.66c0.71,0.13,0.88,0.84,1.13,1.42c0.1,0.23-0.18,0.58-0.4,0.5c-0.64-0.22-1.16-0.65-1.32-1.35
			C34.58,49.9,34.79,49.67,35.24,49.66z"/>
		<path class="st25" d="M32.34,47.08c0.03,0.31-0.07,0.57-0.38,0.51c-0.63-0.13-1.19-0.41-1.34-1.12c-0.06-0.3,0.05-0.69,0.38-0.67
			C31.78,45.83,32.05,46.5,32.34,47.08z"/>
		<path class="st24" d="M36.22,48.11c0.44,0.05,1.08-0.06,1.05,0.45c-0.03,0.58-0.74,0.53-1.21,0.58c-0.39,0.05-0.86-0.04-0.86-0.51
			C35.2,47.89,35.86,48.22,36.22,48.11z"/>
		<path class="st26" d="M30.66,49.16c-0.44-0.03-0.99,0.02-0.96-0.54c0.03-0.56,0.6-0.46,0.99-0.45c0.39,0,1-0.12,1.01,0.43
			C31.7,49.19,31.07,49.11,30.66,49.16z"/>
		<path class="st27" d="M32.86,45.82c0.05-0.36-0.13-0.91,0.49-0.95c0.63-0.04,0.57,0.5,0.55,0.89c-0.02,0.4,0.22,1.04-0.51,1.03
			C32.83,46.79,32.89,46.25,32.86,45.82z"/>
		<path class="st28" d="M32.55,50.17c-0.2,0.72-0.87,0.8-1.45,0.99c-0.22,0.07-0.51-0.1-0.42-0.3c0.24-0.54,0.66-0.98,1.23-1.17
			C32.24,49.59,32.47,49.81,32.55,50.17z"/>
		<path class="st29" d="M36.14,46.34c-0.2,0.6-0.62,0.96-1.21,1.14c-0.25,0.07-0.5-0.13-0.44-0.29c0.22-0.56,0.39-1.22,1.15-1.3
			C35.94,45.85,36.1,46.04,36.14,46.34z"/>
		<path class="st30" d="M33.09,51.38c0.03-0.37-0.07-0.84,0.43-0.91c0.43-0.06,0.61,0.3,0.54,0.65c-0.08,0.42,0.07,1.09-0.44,1.17
			C33.08,52.37,33.13,51.76,33.09,51.38z"/>
		<path class="st31" d="M45.09,54.91c0.52-0.27,1.07-0.09,1.61-0.09c10.82-0.01,21.65-0.01,32.47,0c0.46,0,0.93-0.01,1.38,0.09
			c0.87,0.19,1.25,0.81,1.21,1.67c-0.04,0.82-0.5,1.33-1.3,1.48c-0.37,0.07-0.75,0.05-1.13,0.05c-11.29,0.02-22.58,0.03-33.86,0.04
			c-0.12,0-0.24-0.06-0.36-0.09C45.19,57.01,45.2,55.96,45.09,54.91z"/>
		<path class="st32" d="M55.12,29.14c0.56,0.5,0.64,1.21,0.79,1.97c-1.71-0.95-3.43-1.9-5.13-2.87c-0.54-0.31-1.12-0.69-1.54-0.02
			c-0.44,0.7,0.22,1.06,0.72,1.35c1.92,1.11,3.86,2.19,5.92,3.36c-5.97,1.11-10.97-2.09-12.61-7.71c0.09-0.53,0.51-0.63,0.93-0.66
			c2.84-0.17,5.58,0.1,8.03,1.73C53.38,27.06,54.25,28.1,55.12,29.14z"/>
		<path class="st33" d="M84.36,25c-1.04,2.89-2.57,5.39-5.37,6.9c-2.29,1.23-4.75,1.44-7.37,0.94c1.55-0.89,3.1-1.78,4.64-2.67
			c0.29-0.17,0.58-0.35,0.88-0.5c0.49-0.26,0.91-0.61,0.62-1.18c-0.34-0.66-0.92-0.41-1.42-0.14c-1.11,0.61-2.2,1.23-3.3,1.85
			c-0.26,0.15-0.51,0.3-0.83,0.22c-0.05-0.56,0.28-0.99,0.47-1.48c2.83-3.55,6.63-4.67,10.99-4.37C83.96,24.59,84.27,24.64,84.36,25
			z"/>
		<path class="st34" d="M64.32,10.52c0.91,1.22,1.66,2.52,2.16,3.97c1.35,3.87,0.4,7.27-2.13,10.59c-0.28-1.19-0.13-2.22-0.17-3.23
			c-0.02-0.63,0.01-1.26,0-1.89c-0.01-0.57-0.05-1.18-0.81-1.17c-0.81,0.01-0.69,0.68-0.73,1.22c-0.08,1.38,0.19,2.78-0.18,4.15
			c-0.87-0.18-0.97-1.01-1.19-1.61c-1.59-4.32-0.16-8.54,2.5-11.72C63.92,10.66,64.11,10.56,64.32,10.52z"/>
		<path class="st35" d="M85.19,40.57c-3.21,5.34-8.03,7.43-13.9,5.41c2.09-0.7,3.97-1.32,5.85-1.95c0.48-0.16,0.96-0.31,1.44-0.47
			c0.51-0.17,1.01-0.39,0.83-1.04c-0.21-0.75-0.83-0.59-1.35-0.43c-1.56,0.49-3.11,1.02-4.67,1.52c-0.6,0.19-1.21,0.34-1.81,0.5
			c-0.17-0.61,0.3-0.92,0.63-1.26c2.99-3.01,6.58-4.04,10.7-3.14C83.68,39.89,84.61,39.8,85.19,40.57z"/>
		<path class="st36" d="M56.16,44.11c-2.29-0.41-4.4-1.39-6.62-2.02c-0.64-0.18-1.55-0.78-1.89,0.14c-0.4,1.07,0.76,1.1,1.41,1.33
			c2.3,0.8,4.62,1.54,7.02,2.33c-4.81,2.09-10.28,0.5-13.56-4.93c0.38-0.82,1.22-0.86,1.92-0.98c3.29-0.57,6.52-0.59,9.43,1.44
			c0.59,0.59,1.25,1.12,1.82,1.75C55.93,43.43,56.31,43.64,56.16,44.11z"/>
		<path class="st37" d="M64.32,10.52c-1.53,2.08-2.9,4.26-3.25,6.89c-0.32,2.4-0.02,4.7,1.4,6.75c-0.04,0.36,0.38,0.69,0.06,1.07
			c-2.9-3-3.37-8.16-1.1-12.19c0.53-0.95,1.15-1.85,1.85-2.7C63.83,9.68,64.07,9.95,64.32,10.52z"/>
		<path class="st38" d="M85.19,40.57c-4.9-1.5-9.39-1.1-13.11,2.85c-0.2,0.21-0.34,0.47-0.51,0.7c-0.22,0.13-0.42,0.28-0.65,0.38
			c-0.1,0.05-0.24,0.01-0.36,0.01c1-2.42,4.49-5.03,7.36-5.43c2.33-0.32,4.61-0.01,6.81,0.79C84.98,39.98,85.65,39.95,85.19,40.57z"
			/>
		<path class="st39" d="M84.36,25c-4.57-0.6-8.48,0.6-11.54,4.19c-0.42-0.01-0.4-0.23-0.26-0.52c1.71-2.69,4.2-4.12,7.31-4.55
			c1.34-0.19,2.68-0.13,4.02-0.04C84.67,24.13,84.76,24.41,84.36,25z"/>
		<path class="st40" d="M53.91,41.8c-3.64-2.38-7.45-2.31-11.38-0.86c-0.32-0.32-0.87-0.69-0.05-0.99
			c3.45-1.28,8.42-1.86,11.92,1.58C54.42,41.98,54.23,42.02,53.91,41.8z"/>
		<path class="st41" d="M52.36,26.64c-2.39-1.51-5.04-1.84-7.79-1.76c-0.45,0.01-0.92,0-1.3,0.33c-0.27-0.4-0.98-0.97,0.1-1.09
			c3.42-0.36,6.74-0.13,9.5,2.3C52.83,26.8,52.65,26.85,52.36,26.64z"/>
		<path class="st42" d="M45.09,54.91c0.66,0.74,0.67,2.39,0.01,3.15c-0.83-0.19-1.32-0.7-1.31-1.58
			C43.79,55.63,44.22,55.08,45.09,54.91z"/>
		<path class="st43" d="M53.91,41.8c0.21-0.01,0.41-0.03,0.49-0.27c1.08,0.71,1.82,1.71,2.59,2.8c-0.43,0.18-0.6-0.1-0.82-0.24
			C55.63,43.12,54.63,42.6,53.91,41.8z"/>
		<path class="st44" d="M52.36,26.64c0.17-0.07,0.34-0.15,0.51-0.22c0.99,0.7,1.75,1.6,2.25,2.71
			C54.2,28.31,53.28,27.48,52.36,26.64z"/>
		<path class="st45" d="M72.56,28.66c0.09,0.17,0.18,0.35,0.26,0.52c-0.02,0.5-0.37,0.84-0.61,1.23c-0.25,0.3-0.39,0.73-1.03,0.73
			C71.55,30.2,71.97,29.39,72.56,28.66z"/>
		<path class="st46" d="M51.32,72.68c-1.01-2.13-1.92-4.14-2.02-6.45c-0.05-1.08-0.38-2.14-0.4-3.21c-0.02-0.75,0.2-1.45-0.51-2.06
			c-0.25-0.21,0.04-0.64,0.47-0.65c0.8-0.01,1.56-0.28,2.37-0.28c8.59,0.03,17.19,0.02,25.78,0.02c0.42,0,0.85,0,1.25,0.08
			c0.52,0.11,1.07,0.3,0.38,0.94c-0.33,0.3-0.11,0.6-0.07,0.93c0.13,0.96,0.14,1.87-0.43,2.79c-0.56,0.9-0.47,2.07-0.44,3.06
			c0.08,2.77-0.98,5.34-1.22,8.04c-0.07,0.83,0.08,1.26,0.78,1.39c0.68,0.12,1.39,0.15,1.71-0.81c0.28-0.84-0.04-1.79,0.78-2.8
			c0.39,2.33-1.29,4.12-0.75,6.36c-0.75-0.32-0.72-0.85-0.95-1.19c-0.33-0.48-0.79-0.63-1.31-0.62c-0.6,0.01-0.53,0.59-0.59,0.93
			c-0.25,1.4-0.73,2.75-0.82,4.19c-0.07,1.14-0.91,1.79-2.37,1.73c-2.2-0.08-4.42-0.08-6.61-0.08c-2.5,0-5.03,0.01-7.55,0.1
			c-1.39,0.05-2.78-0.03-4.17,0.02c-1.43,0.06-2.89-0.89-2.55-2.49c0.03-0.16,0.06-0.36-0.01-0.5c-1.14-2.42-0.24-5.24-1.45-7.65
			c-0.12-0.24-0.05-0.58-0.05-0.87c0-0.26,0.03-0.55,0.36-0.57c0.33-0.02,0.33,0.28,0.4,0.53c0.29,1.07,1.56,1.76,3.03,1.67
			c0.85-0.05,2.16-1.24,2.28-2.06c0.17-1.2-0.7-2.59-1.87-2.98C52.91,69.55,52.41,69.11,51.32,72.68z"/>
		<path class="st47" d="M52.08,71.91c-0.01-0.37,0.19-0.61,0.51-0.76c0.26-0.14,0.56-0.16,0.84-0.24c0.84-0.25,1.59-0.05,2.14,0.62
			c0.53,0.65,0.45,1.42,0.12,2.12c-0.36,0.76-1.02,1.05-1.86,0.93c-0.24-0.03-0.5,0.04-0.73-0.1l0,0
			C52.17,73.85,51.66,73.06,52.08,71.91z"/>
		<path class="st48" d="M53.09,74.48c0.33-0.01,0.67-0.02,1-0.04c1.12-0.07,1.74-0.81,1.6-1.92c-0.14-1.13-0.87-1.7-2-1.49
			c-0.37,0.07-0.73,0.17-1.11,0.11c0.95-0.76,1.94-0.72,2.85,0c0.78,0.62,0.83,1.48,0.49,2.38C55.47,74.72,54.5,75.05,53.09,74.48z"
			/>
		<path class="st48" d="M52.08,71.91c-0.17,1.05,0.37,1.83,1.01,2.57C51.75,73.84,51.58,73.4,52.08,71.91z"/>
		<path class="st49" d="M35.15,27.68c-0.04,0.48-0.3,0.9-0.81,0.92c-0.54,0.02-0.8-0.5-0.84-0.92c-0.05-0.46,0.37-0.73,0.83-0.76
			C34.82,26.88,35.11,27.13,35.15,27.68z"/>
		<path class="st50" d="M85.94,13.7c-0.75,0.03-1.49,0.08-2.24,0.07c-0.49-0.01-0.92-0.37-0.5-0.78c0.62-0.59,1.5-0.25,2.27-0.23
			C86.11,12.77,85.93,13.32,85.94,13.7c0,0,0.04,0.05,0.04,0.05L85.94,13.7z"/>
		<path class="st51" d="M87.71,9.34c0.02-0.29,0.02-0.59,0.07-0.88c0.05-0.33,0.3-0.6,0.61-0.47c0.72,0.32,0.4,1.02,0.44,1.57
			c0.03,0.42,0.2,0.99-0.46,1.14c-0.33,0.07-0.58-0.12-0.61-0.47c-0.03-0.29-0.01-0.59-0.01-0.88C87.74,9.34,87.72,9.34,87.71,9.34z
			"/>
		<path class="st52" d="M71.82,74.72c-1.31-0.02-2.03-0.8-2.01-2.18c0.02-0.95,0.98-1.86,1.98-1.88c1.06-0.01,2.07,0.92,2.07,1.92
			C73.87,73.98,73.14,74.74,71.82,74.72z"/>
		<path class="st53" d="M62.86,75.17c-1.25-0.01-2.53-0.84-2.93-1.85c-0.17-0.43-0.22-0.83,0.18-1.14c0.43-0.32,0.8-0.08,1.11,0.23
			c1.67,1.64,1.83,1.65,3.35-0.1c0.29-0.33,0.63-0.47,1-0.28c0.43,0.22,0.48,0.63,0.35,1.09C65.59,74.21,64.14,75.19,62.86,75.17z"
			/>
		<path class="st54" d="M70.01,67.76c0.02,0.98-0.73,1.73-1.74,1.72c-1.02,0-1.76-0.73-1.74-1.72c0.01-0.92,0.74-1.66,1.67-1.68
			C69.17,66.06,69.99,66.81,70.01,67.76z"/>
		<path class="st55" d="M59.24,67.77c0.02,0.98-0.63,1.67-1.63,1.71c-1.05,0.05-1.79-0.64-1.79-1.66c0-1,0.75-1.74,1.76-1.73
			C58.53,66.09,59.22,66.79,59.24,67.77z"/>
	</g>
</g>
<text transform="matrix(1 0 0 1 32.2447 96.3247)" class="st56 st57">Image coming soon! </text>
</svg>
